<svg width="543" height="501" viewBox="0 0 543 501" fill="none" xmlns="http://www.w3.org/2000/svg">
<path d="M122.067 460.277C215.545 513.643 367.105 513.643 460.583 460.277C554.06 406.911 554.074 320.361 460.583 266.995C367.092 213.629 215.545 213.615 122.067 266.995C28.5894 320.375 28.5894 406.897 122.067 460.277Z" fill="#EBEBEB"/>
<path d="M488.078 327.866L474.442 319.386C474.442 319.386 471.1 288.138 473.319 263.943C476.451 229.925 496.983 189.038 521.465 198.62C545.948 208.202 510.222 242.927 502.294 271.758C494.367 300.589 488.078 327.866 488.078 327.866Z" fill="#02897A"/>
<path opacity="0.1" d="M488.078 327.866L474.442 319.386C474.442 319.386 471.1 288.138 473.319 263.943C476.451 229.925 496.983 189.038 521.465 198.62C545.948 208.202 510.222 242.927 502.294 271.758C494.367 300.589 488.078 327.866 488.078 327.866Z" fill="black"/>
<path d="M480.982 324.036C480.855 324.037 480.731 323.99 480.634 323.901C480.537 323.813 480.473 323.69 480.454 323.555C475.816 285.396 488.513 227.72 514.146 205.842C514.198 205.797 514.259 205.763 514.324 205.742C514.39 205.722 514.458 205.715 514.525 205.723C514.593 205.731 514.658 205.753 514.718 205.788C514.777 205.823 514.83 205.87 514.872 205.927C514.959 206.044 515 206.192 514.985 206.34C514.97 206.488 514.901 206.624 514.793 206.719C489.438 228.37 476.9 285.594 481.498 323.4C481.517 323.548 481.48 323.698 481.396 323.817C481.312 323.936 481.187 324.015 481.048 324.036H480.982Z" fill="white"/>
<path d="M495.358 333.901L485.66 327.894C485.66 327.894 484.008 306.455 493.838 280.408C502.387 257.795 523.619 238.913 534.295 242.871C544.97 246.828 544.706 254.926 539.5 263.42C534.295 271.914 502.624 292.166 495.358 333.901Z" fill="#02897A"/>
<path d="M489.346 334.452C489.277 334.448 489.21 334.43 489.147 334.398C489.085 334.366 489.03 334.321 488.984 334.266C488.939 334.21 488.904 334.146 488.882 334.076C488.86 334.006 488.852 333.932 488.857 333.858C492.054 280.493 517.29 254.248 532.458 250.248C532.595 250.213 532.738 250.237 532.859 250.313C532.98 250.39 533.068 250.513 533.105 250.658C533.137 250.802 533.115 250.954 533.044 251.081C532.972 251.208 532.857 251.3 532.722 251.336C516.748 255.576 492.913 283.983 489.927 333.929C489.922 334.005 489.903 334.078 489.871 334.146C489.839 334.214 489.794 334.274 489.74 334.322C489.686 334.371 489.623 334.408 489.555 334.43C489.488 334.452 489.416 334.46 489.346 334.452Z" fill="white"/>
<path d="M95.3517 332.021C95.3517 332.021 97.1618 300.688 80.1442 279.206C63.1266 257.724 40.9694 257.809 33.6365 261.809C26.3036 265.808 21.3754 277.242 33.9932 285.425C46.6111 293.608 73.4455 309.988 77.9113 324.601L95.3517 332.021Z" fill="#02897A"/>
<path opacity="0.1" d="M95.3517 332.021C95.3517 332.021 97.1618 300.688 80.1442 279.206C63.1266 257.724 40.9694 257.809 33.6365 261.809C26.3036 265.808 21.3754 277.242 33.9932 285.425C46.6111 293.608 73.4455 309.988 77.9113 324.601L95.3517 332.021Z" fill="black"/>
<path d="M87.3448 324.178C87.1813 324.175 87.0241 324.11 86.9026 323.993C86.781 323.876 86.7034 323.715 86.6842 323.542C83.1829 288.874 50.786 269.667 37.8775 267.491C37.7908 267.477 37.7074 267.445 37.6323 267.396C37.5571 267.348 37.4915 267.284 37.4394 267.209C37.3873 267.133 37.3495 267.047 37.3284 266.956C37.3072 266.865 37.303 266.771 37.316 266.678C37.329 266.585 37.359 266.496 37.4042 266.416C37.4494 266.335 37.509 266.265 37.5796 266.209C37.6501 266.153 37.7302 266.113 37.8154 266.09C37.9005 266.068 37.9889 266.063 38.0757 266.077C51.2881 268.296 84.4117 287.941 88.0054 323.386C88.0145 323.479 88.0064 323.573 87.9814 323.662C87.9563 323.752 87.915 323.835 87.8597 323.908C87.8044 323.98 87.7363 324.04 87.6593 324.084C87.5822 324.128 87.4978 324.155 87.4109 324.164L87.3448 324.178Z" fill="white"/>
<path d="M81.0426 316.22C76.775 305.819 71.9525 301.155 58.0794 303.642C44.2064 306.13 46.1883 305.748 29.2103 301.098C22.0492 299.148 14.0028 298.837 7.13236 302.144C1.33211 304.971 -3.00156 310.624 2.61371 316.644C8.92925 323.372 18.3497 325.675 25.3259 331.597C26.9084 332.794 28.1666 334.418 28.9725 336.303C30.809 341.306 27.136 346.945 28.2062 352.189C29.2764 357.432 34.4292 360.23 39.265 360.57C44.1007 360.909 48.8704 359.354 53.6929 358.761C58.5154 358.167 63.9325 358.761 67.2621 362.591C70.8294 366.647 70.9219 373.134 74.2382 377.444C79.2061 383.903 91.4144 385.698 98.0206 381.684L115.316 371.014C126.744 354.535 108.709 341.476 99.2625 328.686C94.6778 322.453 83.6058 322.481 81.0426 316.22Z" fill="#02897A"/>
<path d="M104.6 361.065C104.488 361.067 104.377 361.037 104.279 360.977C104.181 360.917 104.1 360.83 104.045 360.725C84.3192 326.538 30.6107 309.239 11.6113 307.826C11.4383 307.811 11.2776 307.725 11.1639 307.584C11.0502 307.444 10.9926 307.262 11.0035 307.077C11.017 306.891 11.0976 306.717 11.2282 306.593C11.3589 306.469 11.5293 306.405 11.7038 306.413C30.9543 307.826 85.178 325.379 105.168 360.019C105.257 360.181 105.283 360.373 105.241 360.555C105.199 360.737 105.092 360.894 104.944 360.994C104.836 361.045 104.718 361.069 104.6 361.065Z" fill="white"/>
<path d="M42.1189 344.953C42.0159 344.955 41.914 344.931 41.822 344.881C41.7299 344.832 41.6504 344.76 41.5904 344.67C41.4852 344.52 41.4401 344.332 41.4649 344.146C41.4897 343.961 41.5823 343.793 41.7225 343.681C42.4096 343.13 58.7929 330.269 74.7536 330.014C74.8397 330.012 74.9253 330.029 75.0054 330.063C75.0854 330.097 75.1584 330.148 75.2199 330.212C75.2814 330.277 75.3303 330.354 75.3636 330.438C75.397 330.523 75.4142 330.615 75.4142 330.707C75.4159 330.8 75.4006 330.892 75.369 330.978C75.3374 331.065 75.2902 331.144 75.2301 331.211C75.1699 331.278 75.0981 331.331 75.0186 331.368C74.9391 331.406 74.8535 331.426 74.7668 331.428C59.2686 331.668 42.7134 344.684 42.5417 344.811C42.4224 344.914 42.2714 344.964 42.1189 344.953Z" fill="white"/>
<path d="M103.372 373.077C103.513 375.132 104.104 377.123 105.098 378.888C106.092 380.654 107.46 382.144 109.093 383.239L269.399 482.24C271.172 483.202 273.132 483.703 275.12 483.703C277.108 483.703 279.068 483.202 280.841 482.24L500.167 346.776C501.896 345.8 503.343 344.338 504.352 342.547C505.361 340.756 505.895 338.705 505.895 336.614C505.895 334.523 505.361 332.472 504.352 330.681C503.343 328.891 501.896 327.429 500.167 326.453L339.874 227.522C338.101 226.56 336.141 226.059 334.153 226.059C332.165 226.059 330.205 226.56 328.432 227.522L109.093 362.944C107.464 364.036 106.098 365.522 105.104 367.282C104.11 369.042 103.517 371.027 103.372 373.077Z" fill="#37474F"/>
<path d="M169.513 325.604L109.093 362.943C107.364 363.919 105.917 365.381 104.908 367.172C103.898 368.963 103.365 371.014 103.365 373.105C103.365 375.196 103.898 377.247 104.908 379.038C105.917 380.828 107.364 382.291 109.093 383.267L269.399 482.268C271.162 483.253 273.132 483.739 275.12 483.681V325.604H169.513Z" fill="#263238"/>
<path d="M97.9941 363.142C96.4018 361.981 95.0868 360.436 94.155 358.631C93.2233 356.827 92.7008 354.814 92.6299 352.754V148.123C92.7363 146 93.3098 143.933 94.304 142.091C95.2981 140.249 96.6846 138.684 98.3509 137.524L317.677 2.05978C319.333 0.948995 321.24 0.341727 323.194 0.303222C325.148 0.264717 327.074 0.796424 328.767 1.84122C330.46 2.88602 331.854 4.40443 332.801 6.23327C333.747 8.06212 334.21 10.1323 334.14 12.2213V216.866C334.031 218.989 333.457 221.055 332.463 222.897C331.469 224.738 330.083 226.303 328.419 227.466L109.093 362.944C107.387 363.906 105.493 364.425 103.565 364.46C101.637 364.494 99.7288 364.042 97.9941 363.142Z" fill="#455A64"/>
<path d="M119.478 157.635L94.3079 142.089C93.3056 143.923 92.7554 145.999 92.7092 148.123V352.754C92.7802 354.814 93.3026 356.827 94.2344 358.631C95.1661 360.436 96.4812 361.981 98.0735 363.142C99.8085 364.036 101.716 364.481 103.641 364.442C105.567 364.403 107.457 363.88 109.159 362.915L134.183 347.468L119.478 157.635Z" fill="#263238"/>
<path d="M103.372 154.766V359.382C103.372 363.283 105.935 364.866 109.093 362.915L328.419 227.465C330.084 226.303 331.469 224.738 332.463 222.896C333.457 221.055 334.031 218.989 334.14 216.866V12.2352C334.14 8.3345 331.577 6.75161 328.419 8.70195L109.093 144.166C107.426 145.326 106.04 146.891 105.046 148.733C104.052 150.575 103.478 152.642 103.372 154.766Z" fill="#37474F"/>
<path d="M109.093 370.01L269.399 468.94C271.172 469.902 273.132 470.404 275.12 470.404C277.108 470.404 279.068 469.902 280.841 468.94L500.167 333.476C503.338 331.526 503.338 328.36 500.167 326.41L339.874 227.479C338.101 226.517 336.141 226.016 334.153 226.016C332.165 226.016 330.205 226.517 328.432 227.479L109.093 362.943C105.922 364.865 105.922 368.031 109.093 370.01Z" fill="#455A64"/>
<path d="M112.171 155.515L325.354 23.8668C327.243 22.6938 328.789 23.6407 328.789 25.9867V203.115C328.722 204.388 328.377 205.628 327.78 206.732C327.183 207.837 326.352 208.776 325.354 209.474L112.171 341.122C110.269 342.295 108.736 341.349 108.736 339.002V161.875C108.799 160.6 109.144 159.359 109.741 158.254C110.338 157.149 111.171 156.21 112.171 155.515Z" fill="white"/>
<path d="M127.696 364.682L331.286 238.899C332.172 238.418 333.152 238.168 334.146 238.168C335.14 238.168 336.12 238.418 337.007 238.899L347.431 245.329C347.777 245.455 348.076 245.692 348.289 246.009C348.501 246.326 348.615 246.706 348.615 247.096C348.615 247.486 348.501 247.866 348.289 248.183C348.076 248.5 347.777 248.737 347.431 248.863L143.802 374.631C142.915 375.112 141.935 375.362 140.941 375.362C139.947 375.362 138.967 375.112 138.081 374.631L127.696 368.215C127.351 368.09 127.051 367.852 126.839 367.535C126.626 367.218 126.512 366.838 126.512 366.448C126.512 366.059 126.626 365.679 126.839 365.362C127.051 365.045 127.351 364.807 127.696 364.682Z" fill="#263238"/>
<path d="M154.543 381.316L358.12 255.533C359.009 255.052 359.991 254.802 360.987 254.802C361.983 254.802 362.965 255.052 363.854 255.533L427.895 295.105C428.24 295.231 428.54 295.468 428.752 295.785C428.964 296.102 429.079 296.482 429.079 296.872C429.079 297.262 428.964 297.642 428.752 297.959C428.54 298.275 428.24 298.513 427.895 298.638L224.543 424.167C223.654 424.648 222.672 424.898 221.676 424.898C220.68 424.898 219.697 424.648 218.808 424.167L154.543 384.779C154.215 384.645 153.932 384.408 153.732 384.099C153.533 383.79 153.426 383.423 153.426 383.047C153.426 382.672 153.533 382.305 153.732 381.995C153.932 381.686 154.215 381.449 154.543 381.316Z" fill="#263238"/>
<path d="M337.033 312.065L343.415 308.122C343.679 307.952 343.666 307.684 343.415 307.5L336.042 302.949C335.885 302.863 335.711 302.817 335.534 302.817C335.357 302.817 335.182 302.863 335.025 302.949L328.656 306.892C328.379 307.062 328.392 307.331 328.656 307.514L336.029 312.065C336.185 312.15 336.357 312.194 336.531 312.194C336.706 312.194 336.878 312.15 337.033 312.065ZM324.455 296.519L318.087 300.462C317.809 300.617 317.822 300.9 318.087 301.084L325.459 305.635C325.616 305.721 325.791 305.767 325.968 305.767C326.145 305.767 326.319 305.721 326.476 305.635L332.858 301.692C333.122 301.522 333.109 301.239 332.858 301.07L325.472 296.519C325.315 296.432 325.141 296.387 324.964 296.387C324.787 296.387 324.612 296.432 324.455 296.519ZM303.87 309.239L293.075 315.895C292.811 316.065 292.824 316.347 293.075 316.531L300.448 321.082C300.605 321.169 300.78 321.214 300.957 321.214C301.134 321.214 301.308 321.169 301.465 321.082L312.247 314.425C312.524 314.256 312.498 313.973 312.247 313.803L304.874 309.239C304.719 309.152 304.547 309.107 304.372 309.107C304.197 309.107 304.025 309.152 303.87 309.239ZM315.14 302.271L308.772 306.214C308.494 306.384 308.508 306.666 308.772 306.836L316.144 311.387C316.302 311.473 316.476 311.519 316.653 311.519C316.83 311.519 317.004 311.473 317.162 311.387L323.543 307.444C323.808 307.274 323.794 307.006 323.543 306.822L316.158 302.172C316 302.085 315.826 302.04 315.649 302.04C315.472 302.04 315.297 302.085 315.14 302.172V302.271ZM290.129 317.718L283.761 321.647C283.483 321.817 283.51 322.099 283.761 322.283L291.133 326.834C291.289 326.917 291.461 326.961 291.635 326.961C291.81 326.961 291.981 326.917 292.137 326.834L298.519 322.891C298.783 322.721 298.77 322.439 298.519 322.269L291.146 317.718C290.989 317.631 290.815 317.586 290.638 317.586C290.461 317.586 290.286 317.631 290.129 317.718ZM280.88 323.47L274.512 327.413C274.235 327.569 274.261 327.852 274.512 328.035L281.885 332.586C282.042 332.673 282.216 332.718 282.393 332.718C282.57 332.718 282.745 332.673 282.902 332.586L289.283 328.643C289.548 328.473 289.535 328.191 289.283 328.021L281.832 323.371C281.674 323.285 281.5 323.239 281.323 323.239C281.146 323.239 280.972 323.285 280.814 323.371L280.88 323.47ZM309.882 341.984L316.25 338.041C316.527 337.872 316.501 337.603 316.25 337.42L308.877 332.869C308.723 332.782 308.55 332.737 308.375 332.737C308.201 332.737 308.028 332.782 307.873 332.869L301.492 336.812C301.227 336.981 301.241 337.25 301.492 337.434L308.864 341.984C309.018 342.049 309.183 342.076 309.347 342.064C309.512 342.052 309.672 342 309.816 341.914L309.882 341.984ZM300.554 347.737L306.935 343.794C307.2 343.638 307.186 343.355 306.935 343.172L299.563 338.621C299.405 338.534 299.231 338.489 299.054 338.489C298.877 338.489 298.703 338.534 298.545 338.621L292.177 342.564C291.9 342.733 291.926 343.016 292.177 343.186L299.549 347.737C299.701 347.801 299.864 347.828 300.026 347.816C300.189 347.804 300.346 347.752 300.488 347.666L300.554 347.737ZM291.239 353.489L297.62 349.56C297.885 349.39 297.872 349.107 297.62 348.924L290.248 344.373C290.09 344.289 289.916 344.246 289.739 344.246C289.563 344.246 289.389 344.289 289.231 344.373L282.862 348.316C282.585 348.486 282.611 348.768 282.862 348.938L290.222 353.489C290.375 353.553 290.54 353.58 290.705 353.568C290.869 353.556 291.029 353.505 291.173 353.418L291.239 353.489ZM281.99 359.241L288.372 355.312C288.636 355.142 288.623 354.86 288.372 354.676L280.999 350.125C280.842 350.038 280.668 349.993 280.491 349.993C280.314 349.993 280.139 350.038 279.982 350.125L273.614 354.054C273.336 354.224 273.349 354.506 273.614 354.69L280.986 359.241C281.274 359.341 281.587 359.316 281.858 359.17L281.99 359.241ZM327.851 317.916L334.232 313.973C334.496 313.818 334.483 313.535 334.232 313.351L326.86 308.8C326.701 308.717 326.527 308.673 326.351 308.673C326.174 308.673 326 308.717 325.842 308.8L319.474 312.743C319.196 312.913 319.21 313.196 319.474 313.365L326.846 317.916C326.989 317.968 327.139 317.989 327.289 317.977C327.439 317.964 327.585 317.92 327.718 317.845L327.851 317.916ZM319.262 336.289L333.479 327.498C333.743 327.343 333.73 327.06 333.479 326.876L315.576 315.824C315.419 315.738 315.244 315.692 315.068 315.692C314.891 315.692 314.716 315.738 314.559 315.824L307.213 320.375C306.935 320.531 306.962 320.813 307.213 320.997L316.699 326.848C316.99 327.032 317.003 327.315 316.699 327.484L310.714 330.961C310.45 331.116 310.463 331.399 310.714 331.583L318.113 336.091C318.265 336.189 318.437 336.246 318.614 336.259C318.791 336.271 318.968 336.238 319.13 336.162L319.262 336.289ZM271.632 329.222L265.263 333.166C264.986 333.335 264.999 333.604 265.263 333.787L272.636 338.338C272.793 338.425 272.968 338.47 273.145 338.47C273.321 338.47 273.496 338.425 273.653 338.338L280.035 334.395C280.299 334.225 280.286 333.957 280.035 333.773L272.662 329.222C272.494 329.097 272.296 329.023 272.09 329.011C271.885 328.998 271.68 329.047 271.5 329.152L271.632 329.222ZM262.383 334.975L255.803 338.918C255.539 339.087 255.552 339.37 255.803 339.539L263.176 344.09C263.333 344.177 263.507 344.222 263.684 344.222C263.861 344.222 264.036 344.177 264.193 344.09L270.575 340.147C270.839 339.992 270.826 339.709 270.575 339.525L263.149 334.932C263.001 334.85 262.837 334.805 262.67 334.8C262.503 334.795 262.337 334.831 262.185 334.904L262.383 334.975ZM215.585 399.421C215.742 399.507 215.916 399.553 216.093 399.553C216.27 399.553 216.445 399.507 216.602 399.421L222.984 395.478C223.248 395.322 223.235 395.039 222.984 394.856L215.585 390.333C215.427 390.246 215.253 390.201 215.076 390.201C214.899 390.201 214.725 390.246 214.567 390.333L208.199 394.276C207.921 394.446 207.935 394.728 208.199 394.898L215.585 399.421ZM187.614 380.935L181.232 384.878C180.968 385.047 180.981 385.316 181.232 385.5L188.605 390.05C188.762 390.137 188.937 390.183 189.114 390.183C189.291 390.183 189.465 390.137 189.622 390.05L196.004 386.107C196.268 385.938 196.255 385.669 196.004 385.486L188.631 380.935C188.479 380.855 188.312 380.813 188.142 380.813C187.973 380.813 187.806 380.855 187.654 380.935H187.614ZM202.61 394.432C202.767 394.518 202.942 394.564 203.119 394.564C203.296 394.564 203.47 394.518 203.627 394.432L209.996 390.489C210.273 390.333 210.247 390.05 209.996 389.867L202.636 385.316C202.479 385.229 202.305 385.184 202.128 385.184C201.951 385.184 201.776 385.229 201.619 385.316L195.238 389.259C194.973 389.429 194.986 389.711 195.238 389.881L202.61 394.432ZM232.034 402.911L238.416 398.968C238.68 398.799 238.667 398.53 238.416 398.347L231.043 393.796C230.886 393.709 230.711 393.664 230.534 393.664C230.357 393.664 230.183 393.709 230.026 393.796L223.657 397.739C223.38 397.894 223.406 398.177 223.657 398.361L231.017 402.911C231.178 403.008 231.359 403.059 231.544 403.062C231.728 403.064 231.91 403.017 232.074 402.926L232.034 402.911ZM221.702 408.565C221.859 408.651 222.034 408.697 222.211 408.697C222.388 408.697 222.562 408.651 222.719 408.565L229.101 404.622C229.365 404.466 229.352 404.183 229.101 404L221.728 399.449C221.571 399.362 221.397 399.317 221.22 399.317C221.043 399.317 220.868 399.362 220.711 399.449L214.343 403.392C214.065 403.562 214.078 403.844 214.343 404.014L221.702 408.565ZM196.929 375.098L190.56 379.041C190.283 379.196 190.296 379.479 190.56 379.663L197.933 384.214C198.09 384.3 198.265 384.346 198.442 384.346C198.618 384.346 198.793 384.3 198.95 384.214L205.332 380.271C205.596 380.101 205.583 379.818 205.332 379.649L197.959 375.098C197.799 375.029 197.626 375 197.454 375.015C197.282 375.03 197.116 375.087 196.968 375.183L196.929 375.098ZM243.516 346.337L237.134 350.266C236.87 350.436 236.883 350.719 237.134 350.888L244.507 355.453C244.665 355.537 244.839 355.58 245.015 355.58C245.192 355.58 245.366 355.537 245.524 355.453L251.892 351.524C252.17 351.355 252.157 351.072 251.892 350.888L244.52 346.337C244.363 346.273 244.196 346.247 244.028 346.261C243.861 346.276 243.7 346.331 243.555 346.422L243.516 346.337ZM206.336 369.431L199.968 373.36C199.69 373.529 199.703 373.812 199.968 373.996L207.34 378.546C207.498 378.63 207.672 378.673 207.849 378.673C208.025 378.673 208.199 378.63 208.357 378.546L214.739 374.603C215.003 374.434 214.99 374.151 214.739 373.981L207.366 369.416C207.206 369.333 207.029 369.291 206.85 369.293C206.671 369.295 206.495 369.343 206.336 369.431ZM252.923 340.656L246.488 344.571C246.224 344.74 246.237 345.023 246.488 345.193L253.861 349.743C254.018 349.83 254.193 349.875 254.37 349.875C254.547 349.875 254.721 349.83 254.878 349.743L261.247 345.814C261.524 345.645 261.511 345.362 261.247 345.178L253.901 340.684C253.743 340.594 253.567 340.544 253.388 340.54C253.21 340.535 253.032 340.575 252.87 340.656H252.923ZM234.293 352.174L227.912 356.103C227.648 356.273 227.661 356.555 227.912 356.739L235.284 361.29C235.443 361.374 235.617 361.417 235.793 361.417C235.969 361.417 236.143 361.374 236.302 361.29L242.67 357.361C242.948 357.191 242.921 356.909 242.67 356.725L235.311 352.174C235.146 352.081 234.962 352.033 234.776 352.033C234.589 352.033 234.406 352.081 234.241 352.174H234.293ZM224.965 357.926L218.597 361.855C218.32 362.025 218.346 362.308 218.597 362.491L225.97 367.042C226.128 367.126 226.302 367.169 226.478 367.169C226.655 367.169 226.829 367.126 226.987 367.042L233.355 363.113C233.62 362.944 233.606 362.661 233.355 362.477L225.983 357.926C225.818 357.834 225.634 357.785 225.448 357.785C225.261 357.785 225.078 357.834 224.913 357.926H224.965ZM215.585 363.678L209.216 367.607C208.939 367.777 208.965 368.06 209.216 368.243L216.576 372.794C216.733 372.881 216.907 372.926 217.084 372.926C217.261 372.926 217.436 372.881 217.593 372.794L223.975 368.865C224.239 368.696 224.226 368.413 223.975 368.229L216.602 363.678C216.444 363.595 216.27 363.552 216.093 363.552C215.917 363.552 215.743 363.595 215.585 363.678ZM263.215 370.745L269.584 366.816C269.861 366.646 269.848 366.364 269.584 366.18L262.198 361.53C262.04 361.447 261.866 361.403 261.689 361.403C261.513 361.403 261.339 361.447 261.181 361.53L254.799 365.459C254.535 365.629 254.548 365.912 254.799 366.095L262.172 370.646C262.332 370.744 262.512 370.799 262.697 370.803C262.881 370.808 263.064 370.764 263.229 370.674L263.215 370.745ZM345.066 283.799L338.685 287.742C338.42 287.912 338.434 288.18 338.685 288.364L346.057 292.915C346.215 293.002 346.389 293.047 346.566 293.047C346.743 293.047 346.917 293.002 347.075 292.915L353.443 288.972C353.72 288.802 353.707 288.534 353.443 288.35L346.07 283.799C345.915 283.715 345.743 283.671 345.568 283.671C345.394 283.671 345.222 283.715 345.066 283.799ZM333.783 290.767L327.415 294.71C327.137 294.865 327.163 295.148 327.415 295.332L334.774 299.883C334.932 299.966 335.106 300.009 335.283 300.009C335.459 300.009 335.633 299.966 335.791 299.883L342.173 295.939C342.437 295.77 342.424 295.487 342.173 295.318L334.8 290.767C334.647 290.667 334.473 290.608 334.293 290.595C334.114 290.583 333.934 290.618 333.77 290.696L333.783 290.767ZM354.381 278.047L348.013 281.99C347.735 282.146 347.748 282.428 348.013 282.612L355.385 287.163C355.542 287.25 355.717 287.295 355.894 287.295C356.071 287.295 356.245 287.25 356.403 287.163L362.784 283.22C363.048 283.05 363.035 282.768 362.784 282.598L355.412 278.047C355.25 277.935 355.064 277.869 354.872 277.857C354.68 277.844 354.488 277.885 354.315 277.977L354.381 278.047ZM306.156 331.243L312.537 327.3C312.802 327.131 312.788 326.848 312.537 326.679L305.165 322.128C305.007 322.041 304.833 321.996 304.656 321.996C304.479 321.996 304.305 322.041 304.147 322.128L297.779 326.071C297.502 326.226 297.515 326.509 297.779 326.693L305.152 331.243C305.311 331.315 305.483 331.346 305.655 331.333C305.827 331.321 305.994 331.266 306.143 331.173L306.156 331.243ZM364.713 272.323C364.556 272.237 364.381 272.191 364.204 272.191C364.027 272.191 363.853 272.237 363.696 272.323L357.327 276.266C357.05 276.422 357.063 276.705 357.327 276.888L364.7 281.439C364.858 281.523 365.032 281.566 365.209 281.566C365.385 281.566 365.559 281.523 365.717 281.439L372.099 277.496C372.363 277.326 372.35 277.044 372.099 276.874L364.713 272.323ZM272.543 364.922L278.925 360.993C279.189 360.824 279.176 360.541 278.925 360.357L271.513 355.877C271.355 355.79 271.181 355.745 271.004 355.745C270.827 355.745 270.653 355.79 270.495 355.877L264.127 359.806C263.85 359.976 263.863 360.258 264.127 360.442L271.5 364.993C271.666 365.07 271.848 365.104 272.029 365.092C272.211 365.08 272.387 365.021 272.543 364.922ZM386.791 294.371L393.173 290.428C393.437 290.272 393.424 289.989 393.173 289.806L385.761 285.213C385.603 285.126 385.429 285.081 385.252 285.081C385.075 285.081 384.9 285.126 384.743 285.213L378.375 289.156C378.097 289.325 378.111 289.608 378.375 289.778L385.747 294.328C385.905 294.426 386.082 294.482 386.264 294.489C386.446 294.496 386.627 294.456 386.791 294.371ZM366.972 293.622L373.354 289.679C373.618 289.509 373.605 289.24 373.354 289.057L365.982 284.506C365.824 284.419 365.65 284.374 365.473 284.374C365.296 284.374 365.121 284.419 364.964 284.506L358.596 288.449C358.318 288.619 358.332 288.887 358.596 289.071L365.968 293.622C366.115 293.713 366.28 293.766 366.449 293.779C366.619 293.791 366.789 293.761 366.946 293.692L366.972 293.622ZM375.257 278.754C375.099 278.667 374.925 278.622 374.748 278.622C374.571 278.622 374.397 278.667 374.239 278.754L367.871 282.697C367.593 282.852 367.607 283.135 367.871 283.319L375.243 287.87C375.401 287.956 375.575 288.002 375.752 288.002C375.929 288.002 376.104 287.956 376.261 287.87L382.642 283.926C382.907 283.757 382.893 283.474 382.642 283.305L375.257 278.754ZM377.225 277.538L395.115 288.59C395.272 288.677 395.447 288.722 395.624 288.722C395.801 288.722 395.975 288.677 396.132 288.59L402.514 284.647C402.778 284.478 402.765 284.209 402.514 284.025L384.611 272.973C384.454 272.887 384.279 272.841 384.102 272.841C383.925 272.841 383.751 272.887 383.594 272.973L377.225 276.917C376.882 277.072 376.908 277.355 377.199 277.538H377.225ZM355.61 290.258L349.228 294.201C348.964 294.371 348.977 294.653 349.228 294.823L356.601 299.374C356.758 299.46 356.932 299.506 357.109 299.506C357.286 299.506 357.461 299.46 357.618 299.374L363.986 295.431C364.264 295.275 364.251 294.993 363.986 294.809L356.614 290.258C356.464 290.174 356.298 290.127 356.128 290.122C355.959 290.118 355.79 290.154 355.636 290.23L355.61 290.258ZM285.492 333.561L279.083 337.504C278.819 337.674 278.832 337.957 279.083 338.126L286.456 342.677C286.613 342.764 286.788 342.809 286.965 342.809C287.142 342.809 287.316 342.764 287.473 342.677L293.842 338.734C294.119 338.578 294.106 338.296 293.842 338.112L286.469 333.561C286.316 333.472 286.145 333.424 285.97 333.419C285.796 333.414 285.623 333.453 285.465 333.533L285.492 333.561ZM376.485 300.123C376.643 300.21 376.817 300.255 376.994 300.255C377.171 300.255 377.345 300.21 377.503 300.123L383.884 296.18C384.149 296.024 384.135 295.742 383.884 295.558L376.512 291.007C376.354 290.924 376.18 290.88 376.003 290.88C375.827 290.88 375.653 290.924 375.494 291.007L369.126 294.95C368.849 295.12 368.862 295.402 369.126 295.572L376.485 300.123ZM294.806 327.809L288.438 331.752C288.16 331.922 288.174 332.19 288.438 332.374L295.81 336.925C295.968 337.012 296.142 337.057 296.319 337.057C296.496 337.057 296.67 337.012 296.828 336.925L303.209 332.982C303.474 332.812 303.46 332.544 303.209 332.36L295.837 327.809C295.677 327.711 295.496 327.657 295.312 327.652C295.127 327.647 294.944 327.691 294.78 327.781L294.806 327.809ZM224.965 393.697C225.123 393.784 225.297 393.829 225.474 393.829C225.651 393.829 225.825 393.784 225.983 393.697L232.364 389.754C232.629 389.584 232.615 389.316 232.364 389.132L224.992 384.581C224.835 384.494 224.66 384.449 224.483 384.449C224.306 384.449 224.132 384.494 223.975 384.581L217.606 388.524C217.329 388.694 217.355 388.962 217.606 389.146L224.965 393.697ZM210.96 379.564L204.579 383.507C204.314 383.677 204.328 383.945 204.579 384.129L211.951 388.68C212.108 388.766 212.283 388.812 212.46 388.812C212.637 388.812 212.811 388.766 212.969 388.68L219.337 384.737C219.614 384.567 219.601 384.298 219.337 384.115L211.964 379.564C211.805 379.475 211.629 379.428 211.449 379.428C211.27 379.428 211.093 379.475 210.934 379.564H210.96ZM235.311 387.945L241.679 384.002C241.943 383.832 241.93 383.549 241.679 383.38L234.307 378.829C234.149 378.742 233.975 378.697 233.798 378.697C233.621 378.697 233.447 378.742 233.289 378.829L226.855 382.73C226.591 382.885 226.604 383.168 226.855 383.352L234.227 387.902C234.386 388.003 234.566 388.059 234.751 388.067C234.935 388.074 235.119 388.032 235.284 387.945H235.311ZM244.626 382.193L250.994 378.25C251.271 378.08 251.245 377.797 250.994 377.628L243.635 373.077C243.477 372.99 243.303 372.945 243.126 372.945C242.949 372.945 242.775 372.99 242.617 373.077L236.236 377.006C235.971 377.175 235.985 377.458 236.236 377.642L243.608 382.193C243.77 382.281 243.949 382.327 244.13 382.327C244.311 382.327 244.49 382.281 244.652 382.193H244.626ZM253.874 376.426L260.243 372.497C260.52 372.328 260.507 372.045 260.243 371.876L252.87 367.311C252.712 367.227 252.538 367.184 252.361 367.184C252.185 367.184 252.011 367.227 251.853 367.311L245.471 371.24C245.207 371.409 245.22 371.692 245.471 371.876L252.844 376.426C253.006 376.52 253.188 376.57 253.372 376.57C253.557 376.57 253.738 376.52 253.901 376.426H253.874ZM220.209 373.812L213.827 377.755C213.563 377.91 213.576 378.193 213.827 378.377L221.2 382.928C221.357 383.014 221.532 383.06 221.709 383.06C221.886 383.06 222.06 383.014 222.217 382.928L228.599 378.984C228.863 378.815 228.85 378.532 228.599 378.363L221.226 373.812C221.074 373.732 220.907 373.69 220.737 373.69C220.568 373.69 220.401 373.732 220.249 373.812H220.209ZM229.524 368.06L223.155 371.989C222.878 372.158 222.891 372.441 223.155 372.625L230.528 377.175C230.686 377.259 230.86 377.302 231.037 377.302C231.213 377.302 231.387 377.259 231.545 377.175L238.046 373.261C238.31 373.091 238.297 372.808 238.046 372.639L230.673 368.088C230.507 367.979 230.317 367.92 230.122 367.915C229.927 367.91 229.734 367.96 229.563 368.06H229.524ZM266.796 345.051L260.507 348.98C260.243 349.15 260.256 349.433 260.507 349.616L267.879 354.167C268.038 354.251 268.212 354.294 268.388 354.294C268.564 354.294 268.739 354.251 268.897 354.167L275.265 350.238C275.543 350.069 275.516 349.786 275.265 349.602L267.906 345.051C267.742 344.955 267.558 344.904 267.371 344.904C267.184 344.904 266.999 344.955 266.836 345.051H266.796ZM257.468 350.803L251.1 354.732C250.835 354.902 250.849 355.185 251.1 355.368L258.472 359.919C258.63 360.003 258.804 360.046 258.981 360.046C259.157 360.046 259.331 360.003 259.489 359.919L265.858 355.99C266.135 355.821 266.109 355.538 265.858 355.354L258.485 350.803C258.332 350.727 258.165 350.687 257.996 350.687C257.827 350.687 257.661 350.727 257.508 350.803H257.468ZM276.111 339.285L269.756 343.228C269.491 343.398 269.504 343.68 269.756 343.85L277.128 348.415C277.286 348.498 277.46 348.542 277.637 348.542C277.813 348.542 277.987 348.498 278.145 348.415L284.514 344.472C284.791 344.316 284.778 344.034 284.514 343.85L277.141 339.299C276.988 339.218 276.819 339.174 276.647 339.172C276.476 339.17 276.306 339.208 276.15 339.285H276.111ZM238.838 362.308L232.47 366.237C232.193 366.406 232.206 366.689 232.47 366.873L239.843 371.423C240.001 371.507 240.175 371.55 240.351 371.55C240.528 371.55 240.702 371.507 240.86 371.423L247.242 367.48C247.506 367.311 247.493 367.028 247.242 366.858L239.869 362.293C239.713 362.217 239.544 362.178 239.372 362.18C239.201 362.183 239.032 362.226 238.878 362.308H238.838ZM248.153 356.556L241.785 360.484C241.507 360.654 241.534 360.937 241.785 361.12L249.157 365.671C249.312 365.758 249.485 365.803 249.659 365.803C249.834 365.803 250.007 365.758 250.162 365.671L256.543 361.742C256.807 361.573 256.794 361.29 256.543 361.106L249.171 356.556C249.018 356.479 248.851 356.439 248.682 356.439C248.513 356.439 248.346 356.479 248.193 356.556H248.153ZM241.362 397.173L247.73 393.23C247.995 393.061 247.981 392.778 247.73 392.609L240.358 388.058C240.201 387.971 240.026 387.926 239.849 387.926C239.672 387.926 239.498 387.971 239.341 388.058L232.972 392.001C232.695 392.156 232.721 392.439 232.972 392.623L240.345 397.173C240.507 397.268 240.689 397.317 240.873 397.317C241.058 397.317 241.239 397.268 241.402 397.173H241.362ZM186.729 391.209L179.356 386.659C179.199 386.572 179.024 386.527 178.848 386.527C178.671 386.527 178.496 386.572 178.339 386.659L171.984 390.63C171.719 390.8 171.733 391.068 171.984 391.252L179.356 395.803C179.513 395.889 179.688 395.935 179.865 395.935C180.042 395.935 180.216 395.889 180.374 395.803L186.742 391.86C187.033 391.732 187.019 391.45 186.729 391.209ZM200.681 395.591L193.308 391.04C193.153 390.956 192.981 390.913 192.806 390.913C192.632 390.913 192.46 390.956 192.304 391.04L182.554 397.131C182.289 397.301 182.303 397.583 182.554 397.753L189.926 402.304C190.083 402.391 190.258 402.436 190.435 402.436C190.612 402.436 190.786 402.391 190.943 402.304L200.747 396.255C201.051 396.114 200.972 395.831 200.681 395.647V395.591ZM175.419 382.405L168.02 377.91C167.863 377.824 167.688 377.778 167.511 377.778C167.334 377.778 167.16 377.824 167.003 377.91L159.181 382.73C158.917 382.899 158.93 383.182 159.181 383.366L166.553 387.916C166.711 388.003 166.885 388.048 167.062 388.048C167.239 388.048 167.413 388.003 167.571 387.916L175.406 383.083C175.723 382.928 175.71 382.645 175.419 382.461V382.405ZM181.431 378.688C181.588 378.774 181.762 378.82 181.939 378.82C182.116 378.82 182.291 378.774 182.448 378.688L188.816 374.745C189.094 374.589 189.081 374.306 188.816 374.123L181.444 369.572C181.286 369.485 181.112 369.44 180.935 369.44C180.758 369.44 180.584 369.485 180.426 369.572L174.045 373.515C173.781 373.685 173.794 373.967 174.045 374.137L181.431 378.688ZM213.669 400.58L206.336 396.085C206.178 396.002 206.004 395.958 205.827 395.958C205.651 395.958 205.477 396.002 205.319 396.085L193.057 403.66C192.793 403.83 192.806 404.113 193.057 404.282L200.43 408.847C200.588 408.931 200.762 408.974 200.939 408.974C201.115 408.974 201.289 408.931 201.447 408.847L213.708 401.272C213.973 401.102 213.959 400.82 213.669 400.636V400.58ZM219.786 409.808L212.414 405.342C212.256 405.256 212.082 405.21 211.905 405.21C211.728 405.21 211.554 405.256 211.396 405.342L203.548 410.19C203.284 410.359 203.297 410.642 203.548 410.826L210.921 415.377C211.079 415.46 211.253 415.504 211.429 415.504C211.606 415.504 211.78 415.46 211.938 415.377L219.786 410.529C220.09 410.331 220.077 410.049 219.786 409.865V409.808ZM250.703 335.907C250.861 335.994 251.035 336.039 251.212 336.039C251.389 336.039 251.563 335.994 251.721 335.907L258.089 331.978C258.366 331.809 258.34 331.526 258.089 331.342L250.716 326.792C250.558 326.708 250.384 326.665 250.208 326.665C250.031 326.665 249.857 326.708 249.699 326.792L243.331 330.791C243.066 330.961 243.08 331.243 243.331 331.413L250.703 335.907ZM232.061 347.426C232.219 347.509 232.393 347.553 232.569 347.553C232.746 347.553 232.92 347.509 233.078 347.426L239.459 343.497C239.724 343.327 239.711 343.044 239.459 342.861L232.087 338.31C231.929 338.226 231.755 338.183 231.578 338.183C231.402 338.183 231.228 338.226 231.07 338.31L224.701 342.239C224.424 342.408 224.45 342.691 224.701 342.875L232.061 347.426ZM190.745 372.992C190.903 373.079 191.077 373.124 191.254 373.124C191.431 373.124 191.605 373.079 191.763 372.992L198.131 369.049C198.408 368.879 198.395 368.611 198.131 368.427L190.758 363.876C190.601 363.79 190.427 363.744 190.25 363.744C190.073 363.744 189.898 363.79 189.741 363.876L183.36 367.819C183.095 367.989 183.109 368.258 183.36 368.441L190.745 372.992ZM241.388 341.744C241.544 341.828 241.716 341.871 241.891 341.871C242.065 341.871 242.237 341.828 242.393 341.744L248.774 337.815C249.038 337.646 249.025 337.363 248.774 337.179L241.402 332.628C241.244 332.542 241.07 332.496 240.893 332.496C240.716 332.496 240.542 332.542 240.384 332.628L234.016 336.557C233.738 336.727 233.765 337.01 234.016 337.193L241.388 341.744ZM222.746 353.248C222.903 353.335 223.077 353.38 223.254 353.38C223.431 353.38 223.606 353.335 223.763 353.248L230.145 349.319C230.409 349.15 230.396 348.867 230.145 348.683L222.772 344.133C222.614 344.049 222.44 344.006 222.263 344.006C222.087 344.006 221.913 344.049 221.755 344.133L215.386 348.062C215.109 348.231 215.122 348.514 215.386 348.698L222.746 353.248ZM224.899 410.614C224.741 410.53 224.567 410.487 224.391 410.487C224.214 410.487 224.04 410.53 223.882 410.614L214.078 416.649C213.814 416.818 213.827 417.101 214.078 417.285L221.451 421.835C221.608 421.922 221.783 421.967 221.96 421.967C222.137 421.967 222.311 421.922 222.468 421.835L232.272 415.787C232.549 415.617 232.523 415.334 232.272 415.151L224.899 410.614ZM209.375 361.53C209.533 361.614 209.707 361.657 209.883 361.657C210.06 361.657 210.234 361.614 210.392 361.53L216.774 357.587C217.038 357.418 217.025 357.135 216.774 356.965L209.401 352.415C209.244 352.328 209.07 352.283 208.893 352.283C208.716 352.283 208.541 352.328 208.384 352.415L202.015 356.358C201.738 356.513 201.751 356.796 202.015 356.979L209.375 361.53ZM200.06 367.183C200.217 367.27 200.392 367.315 200.569 367.315C200.746 367.315 200.92 367.27 201.077 367.183L207.459 363.24C207.723 363.071 207.71 362.788 207.459 362.619L200.086 358.068C199.929 357.981 199.755 357.936 199.578 357.936C199.401 357.936 199.226 357.981 199.069 358.068L192.701 362.011C192.423 362.166 192.436 362.449 192.701 362.633L200.06 367.183ZM397.506 304.009C397.349 303.923 397.175 303.877 396.998 303.877C396.821 303.877 396.646 303.923 396.489 304.009L380.74 313.676C380.476 313.846 380.489 314.128 380.74 314.312L388.112 318.863C388.271 318.947 388.445 318.99 388.621 318.99C388.797 318.99 388.972 318.947 389.13 318.863L404.905 309.239C405.183 309.069 405.17 308.786 404.905 308.603L397.506 304.009ZM376.908 316.729C376.751 316.642 376.577 316.597 376.4 316.597C376.223 316.597 376.048 316.642 375.891 316.729L369.522 320.658C369.245 320.827 369.258 321.11 369.522 321.294L376.895 325.845C377.053 325.928 377.227 325.972 377.404 325.972C377.58 325.972 377.754 325.928 377.912 325.845L384.294 321.916C384.558 321.746 384.545 321.463 384.294 321.28L376.908 316.729ZM250.716 391.421L257.085 387.478C257.362 387.309 257.336 387.026 257.085 386.856L249.725 382.292C249.567 382.208 249.393 382.165 249.217 382.165C249.04 382.165 248.866 382.208 248.708 382.292L242.327 386.22C242.062 386.39 242.076 386.673 242.327 386.856L249.699 391.407C249.856 391.493 250.03 391.539 250.206 391.541C250.383 391.544 250.557 391.503 250.716 391.421ZM358.279 328.233C358.12 328.15 357.946 328.106 357.77 328.106C357.594 328.106 357.42 328.15 357.261 328.233L350.88 332.162C350.615 332.332 350.629 332.614 350.88 332.798L358.252 337.349C358.41 337.436 358.584 337.481 358.761 337.481C358.938 337.481 359.112 337.436 359.27 337.349L365.638 333.42C365.915 333.25 365.902 332.968 365.638 332.784L358.279 328.233ZM406.821 298.257C406.663 298.174 406.489 298.13 406.312 298.13C406.136 298.13 405.962 298.174 405.804 298.257L399.435 302.172C399.158 302.342 399.171 302.624 399.435 302.794L406.808 307.359C406.966 307.442 407.14 307.486 407.317 307.486C407.493 307.486 407.667 307.442 407.825 307.359L414.207 303.43C414.471 303.26 414.458 302.978 414.207 302.794L406.821 298.257ZM423.508 297.056L405.606 286.004C405.448 285.917 405.274 285.872 405.097 285.872C404.92 285.872 404.745 285.917 404.588 286.004L398.22 289.947C397.942 290.117 397.956 290.399 398.22 290.569L416.123 301.621C416.28 301.708 416.454 301.753 416.631 301.753C416.808 301.753 416.983 301.708 417.14 301.621L423.522 297.678C423.812 297.522 423.799 297.24 423.508 297.056ZM323.464 349.743C323.307 349.657 323.132 349.611 322.955 349.611C322.778 349.611 322.604 349.657 322.447 349.743L314.598 354.591C314.334 354.761 314.347 355.043 314.598 355.213L321.971 359.764C322.128 359.85 322.303 359.896 322.48 359.896C322.657 359.896 322.831 359.85 322.988 359.764L330.837 354.916C331.101 354.746 331.088 354.464 330.837 354.294L323.464 349.743ZM346.995 335.201C346.838 335.114 346.664 335.069 346.487 335.069C346.31 335.069 346.135 335.114 345.978 335.201L336.174 341.25C335.91 341.419 335.923 341.702 336.174 341.871L343.547 346.436C343.705 346.52 343.879 346.563 344.056 346.563C344.232 346.563 344.406 346.52 344.564 346.436L354.368 340.387C354.632 340.218 354.619 339.935 354.368 339.751L346.995 335.201ZM301.888 363.057C301.73 362.973 301.556 362.93 301.379 362.93C301.203 362.93 301.029 362.973 300.871 363.057L248.404 395.449C248.14 395.619 248.153 395.902 248.404 396.085L255.777 400.636C255.935 400.72 256.109 400.763 256.285 400.763C256.462 400.763 256.636 400.72 256.794 400.636L309.261 368.229C309.525 368.06 309.512 367.777 309.261 367.593L301.888 363.057ZM246.475 397.287C246.318 397.2 246.144 397.155 245.967 397.155C245.79 397.155 245.615 397.2 245.458 397.287L237.623 402.134C237.345 402.304 237.359 402.586 237.623 402.756L244.995 407.307C245.153 407.394 245.327 407.439 245.504 407.439C245.681 407.439 245.856 407.394 246.013 407.307L253.901 402.516C254.165 402.346 254.152 402.063 253.901 401.894L246.475 397.287ZM312.669 356.4C312.511 356.317 312.337 356.273 312.161 356.273C311.984 356.273 311.81 356.317 311.652 356.4L303.817 361.248C303.54 361.417 303.553 361.7 303.817 361.884L311.19 366.434C311.348 366.518 311.522 366.561 311.698 366.561C311.875 366.561 312.049 366.518 312.207 366.434L320.055 361.587C320.333 361.431 320.306 361.149 320.055 360.965L312.669 356.4ZM235.694 403.929C235.536 403.846 235.362 403.802 235.185 403.802C235.009 403.802 234.835 403.846 234.677 403.929L226.828 408.777C226.564 408.946 226.577 409.229 226.828 409.413L234.201 413.963C234.359 414.047 234.533 414.09 234.71 414.09C234.886 414.09 235.06 414.047 235.218 413.963L243.053 409.13C243.331 408.96 243.317 408.678 243.053 408.494L235.694 403.929ZM334.245 343.059C334.087 342.975 333.913 342.932 333.737 342.932C333.56 342.932 333.386 342.975 333.228 343.059L325.393 347.892C325.116 348.062 325.129 348.344 325.393 348.528L332.766 353.079C332.924 353.162 333.098 353.206 333.274 353.206C333.451 353.206 333.625 353.162 333.783 353.079L341.631 348.231C341.909 348.062 341.882 347.779 341.631 347.595L334.245 343.059ZM367.593 322.467C367.436 322.38 367.262 322.335 367.085 322.335C366.908 322.335 366.733 322.38 366.576 322.467L360.208 326.396C359.93 326.565 359.943 326.848 360.208 327.032L367.58 331.583C367.738 331.666 367.912 331.71 368.089 331.71C368.265 331.71 368.439 331.666 368.598 331.583L374.979 327.654C375.243 327.484 375.23 327.201 374.979 327.018L367.593 322.467ZM388.007 306.61L394.375 302.681C394.652 302.511 394.639 302.229 394.375 302.045L387.002 297.494C386.844 297.411 386.67 297.367 386.494 297.367C386.317 297.367 386.143 297.411 385.985 297.494L379.604 301.437C379.339 301.607 379.353 301.889 379.604 302.059L386.976 306.624C387.136 306.71 387.312 306.754 387.491 306.754C387.67 306.754 387.847 306.71 388.007 306.624V306.61ZM346.388 306.412L352.769 302.469C353.033 302.299 353.02 302.017 352.769 301.847L345.397 297.296C345.239 297.209 345.065 297.164 344.888 297.164C344.711 297.164 344.537 297.209 344.379 297.296L338.011 301.239C337.733 301.409 337.76 301.677 338.011 301.861L345.37 306.412C345.527 306.499 345.702 306.544 345.879 306.544C346.056 306.544 346.23 306.499 346.388 306.412ZM325.248 345.461L343.877 333.957C344.141 333.787 344.128 333.505 343.877 333.321L336.505 328.77C336.346 328.687 336.172 328.643 335.996 328.643C335.82 328.643 335.645 328.687 335.487 328.77L316.858 340.289C316.594 340.444 316.607 340.727 316.858 340.91L324.23 345.461C324.393 345.537 324.57 345.57 324.747 345.558C324.924 345.546 325.096 345.488 325.248 345.39V345.461ZM377.675 312.433C377.833 312.516 378.007 312.559 378.183 312.559C378.36 312.559 378.534 312.516 378.692 312.433L385.06 308.504C385.338 308.334 385.325 308.051 385.06 307.868L377.688 303.317C377.53 303.23 377.356 303.185 377.179 303.185C377.002 303.185 376.828 303.23 376.67 303.317L370.289 307.246C370.025 307.415 370.038 307.698 370.289 307.882L377.675 312.433ZM368.162 305.946L374.53 302.017C374.807 301.847 374.794 301.564 374.53 301.381L367.157 296.83C366.999 296.746 366.825 296.703 366.649 296.703C366.472 296.703 366.298 296.746 366.14 296.83L359.758 300.773C359.494 300.943 359.507 301.225 359.758 301.395L367.131 305.96C367.297 306.033 367.477 306.063 367.656 306.048C367.835 306.033 368.008 305.974 368.162 305.875V305.946ZM315.933 351.171L322.301 347.228C322.579 347.058 322.552 346.79 322.301 346.606L314.929 342.055C314.771 341.968 314.597 341.923 314.42 341.923C314.243 341.923 314.069 341.968 313.911 342.055L307.503 345.984C307.226 346.154 307.252 346.422 307.503 346.606L314.876 351.157C315.047 351.261 315.242 351.315 315.439 351.313C315.637 351.31 315.83 351.252 315.999 351.143L315.933 351.171ZM357.076 325.11C357.235 325.193 357.409 325.237 357.585 325.237C357.761 325.237 357.936 325.193 358.094 325.11L364.475 321.181C364.74 321.011 364.726 320.729 364.475 320.545L357.103 315.994C356.945 315.911 356.771 315.867 356.594 315.867C356.418 315.867 356.244 315.911 356.085 315.994L349.717 319.937C349.44 320.107 349.453 320.389 349.717 320.559L357.076 325.11ZM269.346 379.903L275.714 375.974C275.992 375.805 275.979 375.522 275.714 375.338L268.342 370.787C268.184 370.704 268.01 370.66 267.833 370.66C267.657 370.66 267.483 370.704 267.324 370.787L260.943 374.716C260.679 374.886 260.692 375.169 260.943 375.352L268.315 379.903C268.475 379.989 268.652 380.034 268.831 380.034C269.01 380.034 269.186 379.989 269.346 379.903ZM278.661 374.151L285.042 370.222C285.307 370.052 285.293 369.77 285.042 369.586L277.683 365.035C277.526 364.949 277.351 364.903 277.174 364.903C276.997 364.903 276.823 364.949 276.666 365.035L270.284 368.964C270.02 369.134 270.033 369.416 270.284 369.6L277.657 374.151C277.813 374.232 277.985 374.274 278.159 374.274C278.333 374.274 278.504 374.232 278.661 374.151ZM260.031 385.655L266.4 381.726C266.677 381.557 266.664 381.274 266.4 381.09L259.04 376.539C258.882 376.456 258.708 376.412 258.532 376.412C258.355 376.412 258.181 376.456 258.023 376.539L251.641 380.468C251.377 380.638 251.39 380.921 251.641 381.104L259.014 385.655C259.171 385.742 259.346 385.787 259.523 385.787C259.699 385.787 259.874 385.742 260.031 385.655ZM297.29 362.647L303.672 358.718C303.936 358.548 303.923 358.266 303.672 358.082L296.299 353.531C296.141 353.448 295.967 353.404 295.791 353.404C295.614 353.404 295.44 353.448 295.282 353.531L288.914 357.474C288.636 357.644 288.649 357.926 288.914 358.096L296.286 362.647C296.442 362.731 296.614 362.775 296.788 362.775C296.963 362.775 297.135 362.731 297.29 362.647ZM288.042 368.399L294.423 364.47C294.687 364.3 294.674 364.018 294.423 363.834L286.932 359.283C286.774 359.196 286.6 359.151 286.423 359.151C286.246 359.151 286.072 359.196 285.914 359.283L279.546 363.212C279.268 363.382 279.282 363.664 279.546 363.834L286.918 368.399C287.082 368.489 287.263 368.537 287.447 368.537C287.631 368.537 287.812 368.489 287.975 368.399H288.042ZM306.671 356.895L313.053 352.952C313.317 352.796 313.304 352.513 313.053 352.33L305.68 347.779C305.523 347.692 305.348 347.647 305.171 347.647C304.994 347.647 304.82 347.692 304.663 347.779L298.189 351.637C297.911 351.807 297.938 352.09 298.189 352.259L305.548 356.81C305.704 356.917 305.882 356.981 306.066 356.996C306.251 357.011 306.436 356.976 306.605 356.895H306.671ZM349.294 271.772C349.452 271.859 349.626 271.904 349.803 271.904C349.98 271.904 350.154 271.859 350.312 271.772L356.693 267.829C356.957 267.674 356.944 267.391 356.693 267.207L354.738 265.992C354.58 265.908 354.406 265.865 354.229 265.865C354.053 265.865 353.879 265.908 353.72 265.992L347.339 269.921C347.075 270.09 347.088 270.373 347.339 270.557L349.294 271.772ZM303.46 303.43C303.618 303.517 303.792 303.562 303.969 303.562C304.146 303.562 304.32 303.517 304.478 303.43L310.846 299.501C311.124 299.331 311.11 299.049 310.846 298.865L303.474 294.314C303.315 294.231 303.141 294.187 302.965 294.187C302.789 294.187 302.614 294.231 302.456 294.314L296.075 298.243C295.81 298.413 295.824 298.695 296.075 298.879L303.46 303.43ZM322.09 291.926C322.248 292.009 322.422 292.053 322.599 292.053C322.775 292.053 322.949 292.009 323.107 291.926L329.489 287.997C329.753 287.827 329.74 287.544 329.489 287.361L322.116 282.81C321.959 282.723 321.785 282.678 321.608 282.678C321.431 282.678 321.256 282.723 321.099 282.81L314.678 286.739C314.4 286.908 314.413 287.191 314.678 287.375L322.09 291.926ZM292.085 310.454C292.243 310.537 292.417 310.581 292.593 310.581C292.77 310.581 292.944 310.537 293.102 310.454L299.47 306.511C299.748 306.341 299.734 306.059 299.47 305.889L292.098 301.324C291.94 301.241 291.765 301.197 291.589 301.197C291.413 301.197 291.239 301.241 291.08 301.324L284.699 305.253C284.435 305.423 284.448 305.705 284.699 305.889L292.085 310.454ZM312.775 297.734C312.933 297.818 313.107 297.861 313.284 297.861C313.46 297.861 313.634 297.818 313.792 297.734L320.174 293.805C320.438 293.636 320.425 293.353 320.174 293.169L312.802 288.619C312.643 288.535 312.469 288.492 312.293 288.492C312.116 288.492 311.942 288.535 311.784 288.619L305.416 292.548C305.138 292.717 305.152 293 305.416 293.184L312.775 297.734ZM273.389 321.958C273.546 322.045 273.721 322.09 273.898 322.09C274.075 322.09 274.249 322.045 274.406 321.958L280.775 318.015C281.052 317.845 281.026 317.563 280.775 317.393L273.415 312.842C273.258 312.756 273.084 312.71 272.907 312.71C272.73 312.71 272.555 312.756 272.398 312.842L266.016 316.785C265.752 316.941 265.765 317.224 266.016 317.407L273.389 321.958ZM282.704 316.206C282.862 316.29 283.036 316.333 283.212 316.333C283.389 316.333 283.563 316.29 283.721 316.206L290.089 312.263C290.367 312.093 290.354 311.811 290.089 311.641L282.73 307.09C282.573 307.004 282.398 306.958 282.221 306.958C282.044 306.958 281.87 307.004 281.713 307.09L275.331 311.033C275.067 311.189 275.08 311.472 275.331 311.655L282.704 316.206ZM330.599 283.291C330.757 283.374 330.931 283.417 331.107 283.417C331.284 283.417 331.458 283.374 331.616 283.291L337.998 279.362C338.262 279.192 338.249 278.909 337.998 278.726L336.029 277.51C335.871 277.427 335.697 277.383 335.52 277.383C335.344 277.383 335.17 277.427 335.012 277.51L328.643 281.439C328.366 281.609 328.392 281.891 328.643 282.075L330.599 283.291ZM358.556 266.02C358.711 266.107 358.883 266.152 359.058 266.152C359.233 266.152 359.405 266.107 359.56 266.02L365.942 262.077C366.206 261.907 366.193 261.639 365.942 261.455L363.986 260.24C363.829 260.153 363.655 260.108 363.478 260.108C363.301 260.108 363.126 260.153 362.969 260.24L356.588 264.169C356.323 264.338 356.336 264.621 356.588 264.805L358.556 266.02ZM374.028 275.588C374.186 275.672 374.36 275.715 374.537 275.715C374.713 275.715 374.887 275.672 375.045 275.588L381.427 271.645C381.691 271.475 381.678 271.193 381.427 271.023L374.054 266.458C373.896 266.375 373.722 266.331 373.546 266.331C373.369 266.331 373.195 266.375 373.037 266.458L366.669 270.387C366.391 270.557 366.418 270.839 366.669 271.023L374.028 275.588ZM397.321 300.872L403.703 296.929C403.967 296.773 403.954 296.491 403.703 296.307L396.33 291.756C396.172 291.673 395.998 291.629 395.822 291.629C395.645 291.629 395.471 291.673 395.313 291.756L388.945 295.699C388.667 295.869 388.68 296.151 388.945 296.321L396.317 300.872C396.473 300.956 396.645 301 396.819 301C396.994 301 397.166 300.956 397.321 300.872ZM339.913 277.538C340.072 277.622 340.246 277.665 340.422 277.665C340.599 277.665 340.773 277.622 340.931 277.538L347.312 273.609C347.577 273.44 347.563 273.157 347.312 272.973L345.344 271.758C345.186 271.675 345.012 271.631 344.835 271.631C344.659 271.631 344.485 271.675 344.326 271.758L337.958 275.687C337.694 275.857 337.707 276.139 337.958 276.323L339.913 277.538ZM264.074 327.71C264.231 327.797 264.406 327.842 264.583 327.842C264.76 327.842 264.934 327.797 265.092 327.71L271.46 323.767C271.724 323.598 271.711 323.329 271.46 323.145L264.087 318.594C263.93 318.508 263.756 318.462 263.579 318.462C263.402 318.462 263.227 318.508 263.07 318.594L256.702 322.538C256.437 322.707 256.451 322.976 256.702 323.159L264.074 327.71Z" fill="#455A64"/>
<path d="M301.954 389.655L371.716 346.563L414.656 373.077L344.881 416.168L301.954 389.655Z" fill="#263238"/>
<path d="M146.88 172.517L354.791 44.1194C358.847 41.6037 362.176 43.6671 362.176 48.6843V220.922C362.11 222.196 361.764 223.435 361.167 224.54C360.571 225.645 359.74 226.584 358.741 227.282L145.559 358.944C143.669 360.103 142.124 359.156 142.124 356.824V181.322C142.218 179.559 142.698 177.844 143.524 176.315C144.35 174.786 145.499 173.485 146.88 172.517Z" fill="#F5F5F5"/>
<path d="M362.242 52.811V48.6842C362.242 43.667 358.913 41.6177 354.857 44.1193L146.88 172.517C145.499 173.485 144.35 174.786 143.524 176.315C142.698 177.844 142.218 179.559 142.124 181.322V188.713L362.242 52.811Z" fill="#F03E3D"/>
<path d="M331.22 62.2096C330.477 62.7264 329.86 63.4232 329.417 64.2434C328.973 65.0636 328.718 65.9841 328.67 66.93C328.67 68.6684 329.806 69.375 331.22 68.4988C331.959 67.9835 332.574 67.2887 333.015 66.4708C333.456 65.653 333.71 64.7353 333.756 63.7925C333.756 62.0542 332.62 61.3475 331.22 62.2096Z" fill="white"/>
<path d="M341.314 55.9763C340.574 56.4946 339.959 57.1921 339.518 58.0122C339.078 58.8323 338.824 59.752 338.777 60.6967C338.777 62.435 339.914 63.1275 341.314 62.2654C342.056 61.7487 342.674 61.0519 343.117 60.2317C343.56 59.4114 343.816 58.491 343.864 57.545C343.864 55.8067 342.728 55.1 341.314 55.9763Z" fill="white"/>
<path d="M351.421 49.7299C350.681 50.2491 350.065 50.9465 349.622 51.7662C349.18 52.5859 348.922 53.5051 348.871 54.4503C348.871 56.1886 350.021 56.8953 351.421 56.019C352.163 55.5045 352.78 54.8101 353.223 53.9924C353.666 53.1746 353.922 52.2565 353.971 51.3128C353.971 49.5744 352.822 48.8678 351.421 49.7299Z" fill="white"/>
<path d="M193.463 273.04L185.374 268.044L165.562 304.75L173.651 309.746L193.463 273.04Z" fill="#37474F"/>
<path d="M193.479 273.029L189.44 270.534L169.628 307.24L173.667 309.735L193.479 273.029Z" fill="#263238"/>
<path d="M143.841 376.426C140.155 383.281 122.701 372.399 126.374 365.643L171.891 289.707C172.014 289.501 172.206 289.354 172.427 289.296C172.649 289.238 172.883 289.274 173.08 289.396L182.223 295.049C182.42 295.168 182.566 295.365 182.63 295.597C182.694 295.829 182.672 296.078 182.567 296.293L143.841 376.426Z" fill="#11B5E4"/>
<path opacity="0.1" d="M143.841 376.427L182.553 296.293C182.658 296.078 182.681 295.829 182.617 295.597C182.553 295.365 182.407 295.168 182.21 295.049L178.048 292.477L133.667 376.865C137.71 378.999 142.176 379.522 143.841 376.427Z" fill="black"/>
<path d="M277.683 197.659C277.683 197.08 277.683 196.514 277.604 195.949C277.524 195.384 277.604 194.833 277.485 194.281C277.366 193.73 277.485 193.546 277.379 193.179C277.287 192.218 277.154 191.271 277.009 190.352C276.943 189.943 276.877 189.519 276.798 189.109C276.718 188.699 276.652 188.331 276.573 187.95C276.348 186.904 276.111 185.886 275.833 184.911C275.688 184.445 275.556 183.978 275.41 183.498C275.382 183.43 275.36 183.359 275.344 183.286C275.186 182.834 275.04 182.396 274.882 181.972C274.723 181.548 274.512 180.982 274.3 180.558C274.089 180.134 274.01 179.866 273.838 179.527C273.742 179.272 273.627 179.026 273.495 178.792C273.362 178.495 273.217 178.198 273.059 177.915C272.9 177.633 272.992 177.774 272.953 177.718C272.913 177.661 272.675 177.209 272.53 176.954C272.385 176.7 272.332 176.629 272.239 176.474C271.562 175.333 270.802 174.251 269.967 173.237L269.544 172.729L269.187 172.333C269.042 172.163 268.883 172.008 268.725 171.838C268.31 171.372 267.869 170.933 267.404 170.524C267.179 170.312 266.941 170.114 266.703 169.93L265.977 169.365C265.599 169.069 265.206 168.795 264.801 168.545L264.484 168.333H264.418L245.696 156.773L245.59 156.702C241.998 154.559 237.943 153.463 233.831 153.522C227.7 153.522 220.777 155.67 213.444 160.193C188.261 175.739 167.835 213.587 167.835 244.708C167.835 260.254 172.908 271.136 181.113 276.252H181.193L199.928 287.799H200.007L200.232 287.926C200.583 288.148 200.945 288.351 201.315 288.534C201.764 288.774 202.227 288.986 202.636 289.184C203.046 289.382 203.469 289.537 203.892 289.679L204.565 289.891C204.801 289.987 205.044 290.063 205.292 290.117C205.535 290.196 205.782 290.262 206.032 290.314C206.21 290.37 206.391 290.413 206.574 290.442C206.891 290.512 207.234 290.583 207.565 290.625C207.639 290.639 207.715 290.639 207.789 290.625C208.186 290.701 208.582 290.757 208.978 290.795C215.769 291.558 223.671 289.509 232.126 284.294C257.323 268.748 277.749 230.886 277.749 199.779C277.683 199.129 277.683 198.394 277.683 197.659ZM247.123 175.654C248.112 179.521 248.597 183.517 248.563 187.526C248.563 214.972 229.788 249.711 207.604 263.476C204.361 265.538 200.86 267.094 197.206 268.098C196.222 264.224 195.738 260.225 195.766 256.212C195.766 228.766 214.541 194.027 236.724 180.262C239.955 178.207 243.443 176.656 247.083 175.654H247.123Z" fill="#11B5E4"/>
<path opacity="0.1" d="M199.161 287.403L180.968 276.182C172.763 271.052 167.689 260.141 167.689 244.651C167.689 230.773 171.759 215.566 178.484 201.603L197.219 213.135C190.481 227.098 186.425 242.305 186.425 256.184C186.425 271.391 191.26 282.146 199.161 287.403Z" fill="black"/>
<path opacity="0.4" d="M277.683 197.659C277.683 197.08 277.683 196.515 277.604 195.949C277.524 195.384 277.604 194.833 277.485 194.282C277.366 193.73 277.485 193.547 277.379 193.179C277.287 192.218 277.155 191.271 277.009 190.353C276.943 189.943 276.877 189.519 276.798 189.109C276.718 188.699 276.652 188.332 276.573 187.95C276.349 186.904 276.111 185.887 275.833 184.911C275.688 184.445 275.556 183.979 275.41 183.498C275.383 183.43 275.36 183.359 275.344 183.286C275.186 182.834 275.041 182.396 274.882 181.972C274.723 181.548 274.512 180.983 274.301 180.559C274.089 180.135 274.01 179.866 273.838 179.527C273.742 179.272 273.628 179.027 273.495 178.792C273.363 178.495 273.217 178.198 273.059 177.916C272.9 177.633 272.993 177.774 272.953 177.718C272.913 177.661 272.675 177.209 272.53 176.955C272.385 176.7 272.332 176.63 272.239 176.474C271.562 175.333 270.803 174.251 269.967 173.238L269.544 172.729L269.187 172.333C269.042 172.164 268.884 172.008 268.725 171.839C268.31 171.372 267.869 170.933 267.404 170.524C267.179 170.312 266.941 170.114 266.703 169.931L265.977 169.365C265.599 169.069 265.207 168.796 264.801 168.546C256.517 163.161 244.982 163.797 232.153 171.697C206.957 187.243 186.531 225.091 186.531 256.212C186.531 271.97 191.815 282.98 200.205 287.983C200.557 288.205 200.918 288.408 201.289 288.591C201.738 288.831 202.2 289.043 202.61 289.241C203.02 289.439 203.442 289.594 203.865 289.735L204.539 289.947C204.775 290.044 205.018 290.12 205.266 290.173C205.509 290.253 205.756 290.319 206.006 290.371C206.183 290.427 206.364 290.47 206.547 290.498C206.864 290.569 207.208 290.64 207.538 290.682C207.613 290.696 207.689 290.696 207.763 290.682C208.159 290.758 208.556 290.814 208.952 290.852C215.743 291.615 223.644 289.566 232.1 284.351C257.296 268.804 277.723 230.942 277.723 199.836C277.683 199.129 277.683 198.394 277.683 197.659ZM227.476 275.828C221.821 279.319 216.377 281.157 211.727 281.157C202.993 281.157 198.977 274.783 197.193 268.098C196.209 264.225 195.725 260.226 195.753 256.212C195.753 228.766 214.528 194.027 236.711 180.262C239.954 178.204 243.456 176.652 247.109 175.654C248.839 175.196 250.613 174.954 252.394 174.934C266.836 174.934 268.381 192.374 268.381 199.878C268.434 227.268 249.659 262.105 227.476 275.828Z" fill="white"/>
<path opacity="0.1" d="M268.434 199.878C268.434 227.324 249.673 262.063 227.476 275.828C221.821 279.319 216.377 281.156 211.727 281.156C202.993 281.156 198.977 274.782 197.193 268.098C200.847 267.094 204.348 265.538 207.591 263.476C229.814 249.753 248.55 214.972 248.55 187.526C248.584 183.516 248.099 179.521 247.109 175.654C248.839 175.196 250.613 174.954 252.394 174.933C266.875 174.976 268.434 192.373 268.434 199.878Z" fill="black"/>
<path opacity="0.7" d="M260.507 195.087C260.507 222.533 241.745 257.272 219.548 271.037C213.893 274.528 208.45 276.365 203.799 276.365C202.874 276.368 201.95 276.287 201.038 276.125C199.252 273.766 197.951 271.03 197.219 268.098C196.235 264.224 195.751 260.225 195.779 256.212C195.779 228.766 214.554 194.027 236.737 180.262C239.981 178.203 243.482 176.652 247.136 175.654C248.865 175.196 250.639 174.954 252.421 174.933C253.35 174.931 254.278 175.011 255.195 175.174C259.767 180.926 260.507 190.155 260.507 195.087Z" fill="white"/>
<path d="M292.441 166.497V197.787C292.441 200.133 293.987 201.08 295.877 199.907L487.589 81.5154C488.587 80.8174 489.418 79.8782 490.015 78.7735C490.612 77.6687 490.957 76.4295 491.024 75.1556V43.8229C491.024 41.4768 489.478 40.5299 487.589 41.703L295.877 160.094C294.874 160.797 294.04 161.744 293.443 162.856C292.846 163.968 292.503 165.216 292.441 166.497Z" fill="#E6E6E6"/>
<path d="M295.876 160.094L330.017 139.022V178.792L295.876 199.864C293.987 201.037 292.441 200.09 292.441 197.744V166.496C292.503 165.215 292.846 163.968 293.443 162.855C294.04 161.743 294.874 160.797 295.876 160.094Z" fill="#BA68C8"/>
<path d="M318.721 156.378C316.567 155.049 313.845 155.261 311.058 156.985C308.408 158.801 306.204 161.269 304.63 164.183C303.055 167.096 302.156 170.371 302.007 173.733C301.914 175.912 302.556 178.054 303.817 179.768L300.144 186.495C299.905 186.976 299.847 187.537 299.982 188.063C300.117 188.588 300.435 189.039 300.871 189.321C301.174 189.503 301.514 189.601 301.862 189.604C302.21 189.604 302.552 189.507 302.853 189.32C303.155 189.134 303.405 188.867 303.579 188.544L307.213 181.817C307.605 181.896 308.003 181.938 308.402 181.944C310.024 181.912 311.61 181.425 313 180.531C315.644 178.711 317.844 176.242 319.416 173.329C320.988 170.416 321.887 167.143 322.037 163.783C322.077 160.349 320.888 157.72 318.721 156.378ZM311.058 176.87C310.593 177.404 309.974 177.754 309.3 177.863C308.625 177.971 307.937 177.832 307.346 177.468C306.756 177.104 306.298 176.536 306.048 175.858C305.799 175.179 305.771 174.43 305.971 173.733C306.125 171.118 306.843 168.577 308.07 166.308C309.296 164.04 310.997 162.107 313.039 160.66C313.832 160.12 314.743 159.813 315.682 159.77C316.069 159.754 316.453 159.852 316.792 160.052C317.289 160.507 317.671 161.089 317.902 161.743C318.133 162.398 318.205 163.105 318.113 163.797C317.96 166.411 317.244 168.952 316.02 171.22C314.796 173.488 313.097 175.422 311.058 176.87Z" fill="white"/>
</svg>
