<svg width="540" height="475" viewBox="0 0 540 475" fill="none" xmlns="http://www.w3.org/2000/svg">
<path d="M79.0544 428.856C184.46 489.45 355.368 489.45 460.774 428.856C566.18 368.263 566.18 270.019 460.774 209.413C355.368 148.806 184.508 148.819 79.0544 209.413C-26.3997 270.006 -26.3033 368.263 79.0544 428.856Z" fill="#F5F5F5"/>
<path d="M49.6719 329.485L15.4083 307.723V226.852L49.6719 248.628V329.485Z" fill="#E0E0E0"/>
<path d="M49.6719 248.628L98.6267 217.529V298.386L49.6719 329.485V248.628Z" fill="#EBEBEB"/>
<path d="M98.6266 217.529L49.6719 248.628L15.4083 226.852L64.3631 195.753L98.6266 217.529Z" fill="#F5F5F5"/>
<path d="M54.577 251.732L93.7336 226.852L94.6375 227.423V257.381L55.4688 282.26L54.5649 281.69L54.577 251.732Z" fill="#E0E0E0"/>
<path d="M55.4688 252.315L94.6374 227.422V257.381L55.4688 282.26V252.315Z" fill="#F5F5F5"/>
<path d="M70.8228 247.633L77.4875 243.403C78.3432 242.846 79.0422 243.098 79.0422 243.96C78.9801 244.488 78.8074 244.993 78.5376 245.434C78.2678 245.876 77.9083 246.243 77.4875 246.506L70.8228 250.737C69.9551 251.294 69.2561 251.042 69.2561 250.18C69.3186 249.65 69.4928 249.144 69.7649 248.702C70.0369 248.26 70.3992 247.894 70.8228 247.633V247.633Z" fill="#E0E0E0"/>
<path d="M53.6731 289.633L92.8297 264.754V294.713L93.7336 295.283L54.5649 320.162L53.6731 319.592V289.633Z" fill="#E0E0E0"/>
<path d="M54.5649 290.204L93.7336 265.325V295.283L54.5649 320.163V290.204Z" fill="#F5F5F5"/>
<path d="M69.9191 285.536L76.644 281.319C77.5118 280.762 78.2108 281.014 78.2108 281.876C78.1483 282.405 77.9741 282.911 77.702 283.353C77.43 283.796 77.0676 284.162 76.644 284.422L69.9793 288.653C69.1116 289.21 68.4126 288.958 68.4126 288.096C68.4668 287.57 68.631 287.065 68.8924 286.621C69.1538 286.177 69.5052 285.805 69.9191 285.536Z" fill="#E0E0E0"/>
<path d="M49.6719 243.96L15.4083 222.184V141.326L49.6719 163.089V243.96Z" fill="#E0E0E0"/>
<path d="M49.6719 163.089L98.6267 131.99V212.861L49.6719 243.96V163.089Z" fill="#EBEBEB"/>
<path d="M98.6266 131.99L49.6719 163.089L15.4083 141.326L64.3631 110.227L98.6266 131.99Z" fill="#F5F5F5"/>
<path d="M54.5649 166.205L93.7336 141.326L94.6375 141.896V171.855L55.4688 196.734L54.5649 196.151V166.205Z" fill="#E0E0E0"/>
<path d="M70.8228 162.094L77.4755 157.864C78.3432 157.32 79.0422 157.572 79.0422 158.434C78.9779 158.963 78.803 159.468 78.5311 159.91C78.2592 160.352 77.8979 160.718 77.4755 160.98L70.8228 165.211C69.9551 165.754 69.2561 165.516 69.2561 164.654C69.3195 164.123 69.494 163.615 69.7659 163.171C70.0378 162.727 70.3996 162.358 70.8228 162.094V162.094Z" fill="#E0E0E0"/>
<path d="M53.6731 204.108L92.8297 179.229V209.174L93.7336 209.744L54.5649 234.623L53.6731 234.053V204.108Z" fill="#E0E0E0"/>
<path d="M54.5649 204.678L93.7336 179.799V209.744L54.5649 234.623V204.678Z" fill="#F5F5F5"/>
<path d="M69.919 199.997L76.644 195.766C77.4997 195.223 78.2107 195.475 78.2107 196.337C78.1429 196.864 77.9665 197.368 77.695 197.809C77.4235 198.25 77.064 198.618 76.644 198.883L69.919 203.074C69.0513 203.617 68.3523 203.365 68.3523 202.517C68.421 201.993 68.5979 201.493 68.8696 201.056C69.1412 200.62 69.5002 200.257 69.919 199.997V199.997Z" fill="#E0E0E0"/>
<path d="M54.5649 166.205L93.7336 141.326V171.271L54.5649 196.151V166.205Z" fill="#E0E0E0"/>
<path d="M113.318 156.127L91.8777 142.507V168.898L113.318 182.504V156.127Z" fill="#E0E0E0"/>
<path d="M69.2561 200.421V163.089L77.6563 157.731L79.0422 159.986L103.52 144.43V178.645L69.2561 200.421Z" fill="#EBEBEB"/>
<path d="M69.2561 200.421L71.7026 167.757L105.966 145.994L103.52 178.645L69.2561 200.421Z" fill="#F5F5F5"/>
<path d="M74.1492 181.006L55.4688 169.136V195.527L74.1492 207.383V181.006Z" fill="#EBEBEB"/>
<path d="M74.1492 178.645L113.318 153.766V183.711L74.1492 208.59V178.645Z" fill="#F5F5F5"/>
<path d="M89.5034 173.964L96.156 169.733C97.0238 169.189 97.7228 169.441 97.7228 170.303C97.6576 170.832 97.4823 171.337 97.2105 171.779C96.9387 172.22 96.5778 172.587 96.156 172.85L89.5034 177.08C88.6356 177.624 87.9366 177.372 87.9366 176.523C88.0001 175.992 88.1746 175.485 88.4464 175.041C88.7183 174.597 89.0801 174.228 89.5034 173.964Z" fill="#E0E0E0"/>
<path d="M74.1493 178.645L72.8477 177.822V207.768L74.1493 208.59V178.645Z" fill="#E0E0E0"/>
<path d="M72.8477 177.823L112.004 152.93L113.318 153.766L74.1493 178.645L72.8477 177.823Z" fill="#EBEBEB"/>
<path d="M454.471 280.496L420.195 258.72V177.862L454.471 199.625V280.496Z" fill="#E0E0E0"/>
<path d="M454.471 199.626L503.425 168.526V249.397L454.471 280.496V199.626Z" fill="#EBEBEB"/>
<path d="M503.426 168.526L454.471 199.625L420.195 177.863L469.162 146.75L503.426 168.526Z" fill="#F5F5F5"/>
<path d="M459.364 202.742L498.532 177.862L499.436 178.433L499.424 208.378L460.268 233.257L459.364 232.687V202.742Z" fill="#E0E0E0"/>
<path d="M460.268 203.312L499.436 178.433L499.424 208.378L460.268 233.258V203.312Z" fill="#F5F5F5"/>
<path d="M475.622 198.631L482.275 194.4C483.142 193.857 483.841 194.109 483.841 194.957C483.778 195.488 483.603 195.996 483.332 196.44C483.06 196.884 482.698 197.253 482.275 197.517L475.622 201.747C474.754 202.291 474.055 202.039 474.055 201.19C474.119 200.66 474.293 200.152 474.565 199.708C474.837 199.264 475.199 198.895 475.622 198.631V198.631Z" fill="#E0E0E0"/>
<path d="M458.46 240.644L497.629 215.752V245.71L498.533 246.28L459.364 271.16L458.46 270.589V240.644Z" fill="#E0E0E0"/>
<path d="M459.364 241.214L498.532 216.335V246.28L459.364 271.159V241.214Z" fill="#F5F5F5"/>
<path d="M474.718 236.533L481.383 232.302C482.238 231.758 482.937 232.01 482.937 232.859C482.874 233.388 482.7 233.894 482.431 234.338C482.161 234.782 481.803 235.151 481.383 235.419L474.718 239.649C473.85 240.193 473.151 239.941 473.151 239.079C473.217 238.55 473.392 238.046 473.664 237.604C473.935 237.162 474.296 236.796 474.718 236.533Z" fill="#E0E0E0"/>
<path d="M128.467 365.014C128.467 365.014 128.6 343.981 116.548 328.213C105.882 314.248 100.206 305.389 103.568 301.304C106.93 297.22 114.162 296.238 123.912 307.537C133.662 318.837 134.421 350.135 133.071 357.216L128.467 365.014Z" fill="#02897A"/>
<path opacity="0.2" d="M128.467 365.014C128.467 365.014 128.6 343.981 116.548 328.213C105.882 314.248 100.206 305.389 103.568 301.304C106.93 297.22 114.162 296.238 123.912 307.537C133.662 318.837 134.421 350.135 133.071 357.216L128.467 365.014Z" fill="black"/>
<path d="M130.492 342.402C130.355 342.403 130.221 342.352 130.114 342.258C130.007 342.164 129.932 342.033 129.901 341.885C125.683 320.176 114.861 308.174 108.774 302.948C108.648 302.841 108.566 302.683 108.546 302.509C108.526 302.335 108.569 302.159 108.666 302.02C108.766 301.881 108.911 301.79 109.072 301.768C109.232 301.745 109.393 301.793 109.522 301.901C115.728 307.206 126.78 319.486 131.082 341.607C131.1 341.691 131.102 341.779 131.089 341.864C131.075 341.95 131.046 342.031 131.003 342.104C130.961 342.177 130.905 342.24 130.84 342.289C130.775 342.338 130.702 342.372 130.624 342.389L130.492 342.402Z" fill="white"/>
<path d="M128.009 372.826L123.104 375.942C122.581 374.369 121.698 372.97 120.542 371.881C119.385 370.792 117.993 370.048 116.5 369.722C111.137 368.396 105.569 368.622 101.808 363.503C98.0482 358.384 102.628 352.814 101.808 349.047C100.989 345.281 100.459 344.193 93.7337 340.427C87.0087 336.661 84.3573 330.414 89.4191 326.184C94.4809 321.953 102.676 325.056 107.642 328.836C112.053 332.152 116.247 333.027 121.176 333.703C126.105 334.38 134.132 337.39 132.902 349.989C132.097 357.787 130.455 365.453 128.009 372.826V372.826Z" fill="#02897A"/>
<path d="M109.184 356.275C109.056 356.274 108.931 356.228 108.827 356.145C108.723 356.062 108.646 355.945 108.606 355.811C108.56 355.642 108.576 355.46 108.65 355.304C108.725 355.148 108.851 355.03 109.003 354.975C109.437 354.829 119.85 351.196 124.273 355.095C124.383 355.209 124.45 355.364 124.461 355.53C124.471 355.695 124.425 355.859 124.331 355.989C124.237 356.12 124.102 356.206 123.953 356.232C123.804 356.258 123.652 356.221 123.526 356.129C119.621 352.681 109.473 356.209 109.365 356.248L109.184 356.275Z" fill="white"/>
<path d="M128.551 371.817C128.405 371.818 128.263 371.759 128.154 371.651C128.045 371.543 127.976 371.394 127.961 371.234C125.273 343.304 94.6977 330.056 94.3964 329.923C94.3217 329.892 94.2533 329.845 94.1952 329.785C94.1371 329.725 94.0904 329.653 94.0579 329.572C94.0254 329.492 94.0077 329.406 94.0058 329.318C94.0039 329.23 94.0179 329.143 94.0469 329.061C94.1062 328.9 94.2192 328.771 94.3628 328.699C94.5063 328.628 94.6694 328.619 94.8182 328.676C95.1436 328.822 126.394 342.349 129.154 371.114C129.171 371.288 129.125 371.463 129.025 371.599C128.926 371.736 128.782 371.824 128.624 371.844L128.551 371.817Z" fill="white"/>
<path d="M428.318 354.485C428.451 354.02 433.621 324.738 428.318 303.97C423.498 284.926 417.207 277.897 408.24 276.346C399.273 274.794 395.381 281.902 400.141 291.531C404.902 301.159 416.363 313.93 419.171 335.441C420.376 344.299 421.292 351.991 421.292 351.991L428.318 354.485Z" fill="#02897A"/>
<path opacity="0.2" d="M428.318 354.485C428.451 354.02 433.621 324.738 428.318 303.97C423.498 284.926 417.207 277.897 408.24 276.346C399.273 274.794 395.381 281.902 400.141 291.531C404.902 301.159 416.363 313.93 419.171 335.441C420.376 344.299 421.292 351.991 421.292 351.991L428.318 354.485Z" fill="black"/>
<path d="M425.293 337.668C425.214 337.663 425.137 337.641 425.065 337.603C424.994 337.565 424.93 337.512 424.877 337.446C424.825 337.381 424.784 337.305 424.759 337.223C424.733 337.14 424.722 337.053 424.727 336.966C425.932 313.253 418.894 292.088 406.275 281.703C406.148 281.598 406.063 281.441 406.04 281.267C406.018 281.093 406.059 280.916 406.155 280.775C406.253 280.637 406.395 280.547 406.552 280.522C406.71 280.497 406.87 280.54 406.999 280.643C419.93 291.252 427.185 312.895 425.92 337.045C425.911 337.219 425.84 337.381 425.723 337.498C425.605 337.614 425.451 337.676 425.293 337.668Z" fill="white"/>
<path d="M442.19 369.736C441.503 364.285 444.347 356.116 451.108 354.18C457.869 352.243 460.882 347.973 458.448 343.305C456.013 338.637 456.58 334.353 462.714 332.417C468.849 330.481 474.224 327.112 470.693 319.977C468.126 314.818 467.559 311.476 473.85 301.318C479.069 292.883 474.802 287.937 468.27 288.865C461.738 289.793 457.701 298.36 453.615 299.793C449.529 301.225 448.589 293.586 443.202 297.008C437.815 300.429 438.14 309.195 437.972 315.309C437.803 321.423 437.441 322.802 432.572 322.059C427.703 321.317 422.931 322.192 423.039 335.149C423.124 346.262 428.511 360.028 428.511 360.028L442.19 369.736Z" fill="#02897A"/>
<path d="M433.646 361.447H433.585C433.424 361.427 433.277 361.338 433.175 361.199C433.073 361.06 433.026 360.882 433.043 360.704C436.442 327.298 462.498 299.116 469.295 293.401C469.423 293.293 469.584 293.246 469.744 293.27C469.903 293.294 470.047 293.386 470.145 293.527C470.242 293.667 470.285 293.845 470.263 294.02C470.242 294.195 470.158 294.354 470.03 294.462C463.317 300.098 437.599 327.908 434.248 360.85C434.231 361.013 434.16 361.164 434.049 361.274C433.938 361.383 433.795 361.445 433.646 361.447V361.447Z" fill="white"/>
<path d="M445.528 325.733C445.406 325.732 445.287 325.692 445.186 325.616C445.085 325.54 445.007 325.434 444.962 325.309C444.91 325.142 444.919 324.959 444.986 324.799C445.054 324.638 445.174 324.512 445.323 324.447C455.037 320.468 466.053 322.351 466.523 322.431C466.679 322.46 466.818 322.556 466.911 322.698C467.003 322.839 467.041 323.015 467.017 323.187C466.987 323.358 466.9 323.511 466.773 323.614C466.645 323.717 466.487 323.764 466.33 323.744C466.221 323.744 455.158 321.834 445.745 325.693C445.675 325.719 445.602 325.733 445.528 325.733V325.733Z" fill="white"/>
<path d="M436.875 345.811C436.79 345.81 436.707 345.79 436.63 345.751C436.553 345.712 436.485 345.656 436.429 345.586C432.389 340.409 429.651 334.159 428.487 327.457C428.475 327.371 428.479 327.283 428.497 327.198C428.516 327.113 428.55 327.034 428.597 326.963C428.644 326.893 428.704 326.834 428.771 326.789C428.839 326.744 428.915 326.714 428.993 326.701C429.071 326.688 429.151 326.692 429.228 326.713C429.305 326.734 429.378 326.771 429.442 326.823C429.505 326.874 429.559 326.939 429.6 327.014C429.641 327.089 429.668 327.172 429.68 327.258C430.832 333.696 433.467 339.701 437.333 344.697C437.408 344.795 437.457 344.914 437.473 345.041C437.489 345.168 437.472 345.297 437.424 345.414C437.376 345.531 437.299 345.63 437.202 345.7C437.105 345.771 436.991 345.809 436.875 345.811V345.811Z" fill="white"/>
<path d="M128.009 167.571V372.838L318.935 251.545L318.923 64.9375L176.964 155.131L172.059 139.575L128.009 167.571Z" fill="#22343D"/>
<path d="M128.009 372.838L137.795 186.23L328.721 64.9375L318.935 251.545L128.009 372.838Z" fill="#E0E0E0"/>
<path d="M128.009 372.838L142.688 189.347L333.614 68.0413L318.935 251.545L128.009 372.838Z" fill="#22343D"/>
<path d="M157.38 186.231V391.511L348.306 270.205V83.5978L206.334 173.792L201.441 158.235L157.38 186.231Z" fill="#F03E3D"/>
<path d="M157.38 391.511L167.166 204.891L358.092 83.5978L348.306 270.205L157.38 391.511Z" fill="#E0E0E0"/>
<path d="M157.38 391.511L172.059 208.007L362.985 86.7008L348.306 270.205L157.38 391.511Z" fill="#F03E3D"/>
<path d="M318.887 456.826C284.611 435.05 252.819 411.378 238.308 383.607L282.418 355.585L318.887 456.826Z" fill="#E0E0E0"/>
<path d="M191.643 208.007V413.274L382.569 291.981V105.373L240.598 195.567L235.705 180.011L191.643 208.007Z" fill="#02897A"/>
<path opacity="0.2" d="M191.643 208.007V413.274L382.569 291.981V105.373L240.598 195.567L235.705 180.011L191.643 208.007Z" fill="black"/>
<path d="M246.648 268.693C246.166 268.693 246.094 268.083 246.094 267.725V92.6681C246.132 91.9891 246.313 91.3291 246.623 90.74C246.932 90.151 247.362 89.6489 247.877 89.2731L385.679 1.74491C385.867 1.61539 386.083 1.54224 386.305 1.53271C386.787 1.53271 386.86 2.14276 386.86 2.50083V177.557C386.822 178.238 386.641 178.901 386.332 179.492C386.022 180.083 385.592 180.588 385.076 180.966L247.275 268.494C247.084 268.617 246.869 268.685 246.648 268.693Z" fill="white"/>
<path d="M386.233 2.14321C386.243 2.24017 386.243 2.33801 386.233 2.43497V177.491C386.193 178.056 386.04 178.604 385.783 179.095C385.527 179.586 385.174 180.007 384.75 180.329L246.949 267.858L246.708 267.977C246.692 267.881 246.692 267.782 246.708 267.685V92.6288C246.75 92.0665 246.904 91.5214 247.16 91.0328C247.417 90.5443 247.769 90.1246 248.19 89.804L385.992 2.27583C386.068 2.21733 386.154 2.1767 386.245 2.15647L386.233 2.14321ZM386.317 0.83029C385.989 0.841042 385.669 0.94621 385.389 1.13532L247.588 88.6635C246.982 89.1014 246.478 89.6894 246.116 90.3803C245.754 91.0712 245.544 91.8458 245.503 92.6421V267.698C245.503 268.733 245.973 269.33 246.708 269.33C247.037 269.32 247.357 269.215 247.636 269.025L385.437 181.496C386.046 181.062 386.552 180.474 386.914 179.783C387.277 179.091 387.485 178.315 387.522 177.518V2.4615C387.522 1.42708 387.052 0.817028 386.317 0.83029V0.83029Z" fill="#02897A"/>
<path opacity="0.7" d="M386.233 2.14321C386.243 2.24017 386.243 2.33801 386.233 2.43497V177.491C386.193 178.056 386.04 178.604 385.783 179.095C385.527 179.586 385.174 180.007 384.75 180.329L246.949 267.858L246.708 267.977C246.692 267.881 246.692 267.782 246.708 267.685V92.6288C246.75 92.0665 246.904 91.5214 247.16 91.0328C247.417 90.5443 247.769 90.1246 248.19 89.804L385.992 2.27583C386.068 2.21733 386.154 2.1767 386.245 2.15647L386.233 2.14321ZM386.317 0.83029C385.989 0.841042 385.669 0.94621 385.389 1.13532L247.588 88.6635C246.982 89.1014 246.478 89.6894 246.116 90.3803C245.754 91.0712 245.544 91.8458 245.503 92.6421V267.698C245.503 268.733 245.973 269.33 246.708 269.33C247.037 269.32 247.357 269.215 247.636 269.025L385.437 181.496C386.046 181.062 386.552 180.474 386.914 179.783C387.277 179.091 387.485 178.315 387.522 177.518V2.4615C387.522 1.42708 387.052 0.817028 386.317 0.83029V0.83029Z" fill="white"/>
<path d="M260.182 99.3129L309.137 68.2139V130.412L260.182 161.511V99.3129Z" fill="#02897A"/>
<path opacity="0.8" d="M260.182 99.3129L309.137 68.2139V130.412L260.182 161.511V99.3129Z" fill="#11B5E4"/>
<path d="M301.797 83.7173V102.416L300.255 103.358V97.6422C300.255 94.4859 297.929 93.4117 295.036 95.2418L274.295 108.437C271.415 110.268 269.076 114.312 269.076 117.469V123.185L267.546 124.192V105.533L301.797 83.7173Z" fill="white"/>
<path d="M292.373 131.327C289.866 132.918 287.829 131.247 287.829 127.574V97.6418L281.526 101.408V131.579C281.526 135.239 279.489 139.536 276.982 141.088L272.427 143.979V145.968L296.904 130.412V128.436L292.373 131.327Z" fill="white"/>
<path d="M318.887 65.1506C318.887 66.8746 320.297 67.3653 322.02 66.2779L369.65 35.9745C370.495 35.4474 371.217 34.7122 371.761 33.8264C372.305 32.9405 372.654 31.9282 372.783 30.8687C372.783 29.1579 371.373 28.654 369.65 29.7547L322.057 59.9917C321.198 60.5178 320.463 61.2589 319.912 62.1551C319.362 63.0512 319.011 64.0774 318.887 65.1506V65.1506Z" fill="#455A64"/>
<path d="M318.887 83.7171C318.887 85.4411 320.297 85.9451 322.02 84.8444L369.613 54.6073C370.458 54.0803 371.181 53.345 371.725 52.4592C372.268 51.5733 372.618 50.561 372.747 49.5015C372.747 47.7907 371.337 47.2868 369.613 48.3875L322.02 78.6245C321.177 79.1503 320.455 79.8835 319.912 80.7669C319.368 81.6503 319.017 82.66 318.887 83.7171Z" fill="#455A64"/>
<path d="M318.887 102.416C318.887 104.14 320.297 104.644 322.02 103.543L369.613 73.3058C370.457 72.7801 371.179 72.0469 371.722 71.1635C372.266 70.2801 372.616 69.2704 372.747 68.2133C372.747 66.4892 371.337 65.9853 369.613 67.086L322.02 97.323C321.177 97.8488 320.455 98.582 319.912 99.4654C319.368 100.349 319.017 101.358 318.887 102.416V102.416Z" fill="#455A64"/>
<path d="M318.887 121.076C318.887 122.8 320.297 123.304 322.02 122.203L369.613 91.9661C370.457 91.4403 371.179 90.7072 371.722 89.8238C372.266 88.9404 372.616 87.9307 372.747 86.8736C372.747 85.1495 371.337 84.6456 369.613 85.7463L322.02 115.983C321.177 116.509 320.455 117.242 319.912 118.126C319.368 119.009 319.017 120.019 318.887 121.076V121.076Z" fill="#455A64"/>
<path d="M260.182 177.067C260.182 178.791 261.58 179.295 263.316 178.195L369.649 110.559C370.494 110.035 371.217 109.302 371.761 108.419C372.304 107.535 372.654 106.524 372.783 105.467C372.783 103.743 371.373 103.252 369.649 104.339L263.316 171.975C262.47 172.498 261.747 173.231 261.203 174.115C260.659 174.998 260.31 176.009 260.182 177.067V177.067Z" fill="#455A64"/>
<path d="M260.182 195.726C260.182 197.45 261.58 197.954 263.316 196.853L369.649 129.298C370.495 128.77 371.217 128.035 371.761 127.149C372.305 126.264 372.654 125.251 372.783 124.192C372.783 122.481 371.373 121.977 369.649 123.078L263.316 190.634C262.47 191.157 261.747 191.889 261.203 192.773C260.659 193.657 260.31 194.668 260.182 195.726V195.726Z" fill="#455A64"/>
<path d="M260.182 214.399C260.182 216.109 261.58 216.613 263.316 215.513L369.649 147.957C370.495 147.43 371.217 146.694 371.761 145.809C372.305 144.923 372.654 143.911 372.783 142.851C372.783 141.14 371.373 140.636 369.649 141.737L263.316 209.293C262.469 209.818 261.745 210.552 261.201 211.438C260.657 212.325 260.308 213.338 260.182 214.399V214.399Z" fill="#455A64"/>
<path d="M191.643 413.274L225.907 248.442L416.833 127.136L382.569 291.981L191.643 413.274Z" fill="#02897A"/>
<path d="M238.356 261.346V383.607L282.418 355.611V233.363L238.356 261.346Z" fill="#02897A"/>
<path opacity="0.2" d="M238.356 261.346V383.607L282.418 355.611V233.363L238.356 261.346Z" fill="black"/>
<path d="M318.971 456.03C315.223 452.954 279.092 422.571 260.725 379.112C241.176 332.907 241.2 279.011 241.2 258.734V258.097L372.18 174.892C372.18 195.355 372.18 249.331 391.813 295.695C409.758 338.133 444.504 368.131 450.012 372.719L318.971 456.03Z" fill="white"/>
<path d="M371.578 176.086C371.578 197.411 371.952 250.352 391.271 296.026C408.613 337.005 441.587 366.473 448.927 372.693L319.008 455.234C313.934 451.03 279.164 421.151 261.279 378.886C241.755 332.814 241.755 279.024 241.755 258.773V258.521L371.53 176.072L371.578 176.086ZM372.735 173.778L240.55 257.765C240.55 276.849 240.188 332.297 260.134 379.443C279.767 425.713 318.887 456.826 318.887 456.826L451.108 372.825C451.108 372.825 411.94 341.713 392.367 295.442C372.41 248.296 372.783 192.849 372.783 173.765L372.735 173.778Z" fill="#02897A"/>
<path opacity="0.7" d="M371.578 176.086C371.578 197.411 371.952 250.352 391.271 296.026C408.613 337.005 441.587 366.473 448.927 372.693L319.008 455.234C313.934 451.03 279.164 421.151 261.279 378.886C241.755 332.814 241.755 279.024 241.755 258.773V258.521L371.53 176.072L371.578 176.086ZM372.735 173.778L240.55 257.765C240.55 276.849 240.188 332.297 260.134 379.443C279.767 425.713 318.887 456.826 318.887 456.826L451.108 372.825C451.108 372.825 411.94 341.713 392.367 295.442C372.41 248.296 372.783 192.849 372.783 173.765L372.735 173.778Z" fill="white"/>
<path d="M357.827 201.946L316.031 228.47C315.194 228.976 314.481 229.698 313.952 230.573C313.423 231.448 313.095 232.451 312.994 233.496C313.054 235.18 314.512 235.658 316.236 234.557L358.044 208.033C358.87 207.531 359.576 206.819 360.102 205.957C360.628 205.094 360.96 204.105 361.069 203.073C360.996 201.323 359.562 200.845 357.827 201.946Z" fill="#455A64"/>
<path d="M358.718 220.049L316.922 246.572C316.096 247.061 315.395 247.773 314.885 248.64C314.375 249.507 314.073 250.502 314.006 251.532C314.138 253.163 315.657 253.601 317.38 252.5L359.188 225.977C360.011 225.489 360.707 224.78 361.211 223.914C361.715 223.049 362.01 222.056 362.069 221.03C361.948 219.385 360.454 218.988 358.718 220.049Z" fill="#455A64"/>
<path d="M360.394 237.647L318.586 264.171C316.862 265.272 315.609 267.46 315.814 269.038C316.019 270.616 317.597 271.027 319.333 269.927L361.141 243.403C362.864 242.302 364.094 240.127 363.877 238.549C363.66 236.971 362.117 236.547 360.394 237.647Z" fill="#455A64"/>
<path d="M362.9 254.715L321.092 281.239C319.369 282.34 318.176 284.488 318.465 286.026C318.754 287.565 320.393 287.91 322.081 286.809L363.877 260.285C365.612 259.184 366.769 257.049 366.48 255.511C366.191 253.972 364.684 253.614 362.9 254.715Z" fill="#455A64"/>
<path d="M366.299 271.213L324.491 297.737C322.768 298.838 321.647 300.933 322.081 302.405C322.515 303.877 324.166 304.209 325.889 303.108L367.697 276.584C369.433 275.483 370.517 273.401 370.108 271.916C369.698 270.431 368.023 270.112 366.299 271.213Z" fill="#455A64"/>
<path d="M370.71 287.114L268.824 351.845C267.1 352.946 266.052 354.988 266.522 356.407C266.992 357.826 268.787 358.092 270.511 356.991L372.398 292.26C374.133 291.159 375.133 289.13 374.663 287.698C374.193 286.266 372.373 286.014 370.71 287.114Z" fill="#455A64"/>
<path d="M376.073 302.299L274.198 367.03C272.463 368.13 271.511 370.12 272.089 371.472C272.668 372.825 274.5 373.037 276.259 371.937L378.146 307.205C379.881 306.105 380.809 304.115 380.231 302.763C379.652 301.41 377.809 301.211 376.073 302.299Z" fill="#455A64"/>
<path d="M382.762 316.768L280.875 381.499C279.14 382.599 278.284 384.536 278.971 385.822C279.658 387.108 281.622 387.241 283.358 386.14L385.172 321.409C386.896 320.322 387.727 318.399 387.04 317.112C386.353 315.826 384.449 315.667 382.762 316.768Z" fill="#455A64"/>
<path d="M390.56 330.454L288.685 395.171C286.949 396.272 286.178 398.169 286.962 399.375C287.745 400.582 289.806 400.702 291.541 399.588L393.416 334.857C395.151 333.756 395.899 331.886 395.115 330.666C394.332 329.446 392.295 329.353 390.56 330.454Z" fill="#455A64"/>
<path d="M399.454 343.463L297.567 408.181C295.844 409.282 295.157 411.125 296.025 412.279C296.892 413.433 299.025 413.486 300.761 412.385L402.648 347.628C404.371 346.527 405.058 344.71 404.166 343.556C403.274 342.402 401.189 342.323 399.454 343.463Z" fill="#455A64"/>
<path d="M409.276 355.85L307.426 420.567C305.69 421.668 305.015 423.472 306.028 424.546C307.04 425.62 309.185 425.647 310.909 424.546L412.795 359.815C414.531 358.714 415.133 356.937 414.169 355.836C413.205 354.736 411.036 354.762 409.276 355.85Z" fill="#455A64"/>
<path d="M420.123 367.693L318.236 432.411C316.513 433.511 315.946 435.275 317.031 436.323C318.116 437.371 320.333 437.331 322.069 436.23L423.871 371.499C425.594 370.398 426.137 368.674 425.076 367.613C424.016 366.552 421.81 366.592 420.123 367.693Z" fill="#455A64"/>
<path d="M300.881 238.138L252.818 268.64C253.349 287.803 255.337 315.441 262.617 343.278L310.692 312.776C303.4 284.939 301.412 257.288 300.881 238.138Z" fill="#02897A"/>
<path opacity="0.8" d="M300.881 238.138L252.818 268.64C253.349 287.803 255.337 315.441 262.617 343.278L310.692 312.776C303.4 284.939 301.412 257.288 300.881 238.138Z" fill="#11B5E4"/>
<path d="M272.415 264.423C272.48 263.186 272.305 261.948 271.902 260.791C271.498 259.634 270.876 258.584 270.077 257.712L252.818 268.666C252.963 273.732 253.204 279.395 253.626 285.496C255.871 285.78 258.142 285.318 260.146 284.17C266.931 280.748 272.415 271.876 272.415 264.423Z" fill="#02897A"/>
<path opacity="0.6" d="M272.415 264.423C272.48 263.186 272.305 261.948 271.902 260.791C271.498 259.634 270.876 258.584 270.077 257.712L252.818 268.666C252.963 273.732 253.204 279.395 253.626 285.496C255.871 285.78 258.142 285.318 260.146 284.17C266.931 280.748 272.415 271.876 272.415 264.423Z" fill="white"/>
<path d="M306.606 294.474C303.4 290.032 296.88 276.306 294.096 270.325C293.987 270.088 293.815 269.893 293.604 269.765C293.393 269.637 293.152 269.582 292.912 269.606C292.672 269.63 292.444 269.733 292.258 269.901C292.071 270.07 291.935 270.296 291.867 270.55C288.855 281.879 287.106 293.569 286.66 305.362C282.646 301.856 279.196 297.633 276.452 292.87C276.335 292.685 276.173 292.541 275.984 292.455C275.795 292.369 275.588 292.344 275.386 292.383C275.185 292.422 274.998 292.523 274.847 292.675C274.697 292.827 274.589 293.024 274.536 293.241C269.281 315.508 271.921 337.416 271.921 337.416L310.692 312.776C309.077 306.622 307.739 300.495 306.606 294.474Z" fill="#02897A"/>
<path opacity="0.6" d="M306.606 294.474C303.4 290.032 296.88 276.306 294.096 270.325C293.987 270.088 293.815 269.893 293.604 269.765C293.393 269.637 293.152 269.582 292.912 269.606C292.672 269.63 292.444 269.733 292.258 269.901C292.071 270.07 291.935 270.296 291.867 270.55C288.855 281.879 287.106 293.569 286.66 305.362C282.646 301.856 279.196 297.633 276.452 292.87C276.335 292.685 276.173 292.541 275.984 292.455C275.795 292.369 275.588 292.344 275.386 292.383C275.185 292.422 274.998 292.523 274.847 292.675C274.697 292.827 274.589 293.024 274.536 293.241C269.281 315.508 271.921 337.416 271.921 337.416L310.692 312.776C309.077 306.622 307.739 300.495 306.606 294.474Z" fill="white"/>
</svg>
