<svg width="177" height="161" viewBox="0 0 177 161" fill="none" xmlns="http://www.w3.org/2000/svg">
<path fill-rule="evenodd" clip-rule="evenodd" d="M13.9257 152C6.26724 152 0 145.812 0 138.25V90.1783H35.0522V90.1252H56.1209C61.5525 89.9878 66.1485 85.3126 66.1485 79.8127C66.1485 74.175 61.4147 69.5002 55.703 69.5002H27.8516V69.509H0V55.7501C0 48.1876 6.26724 42 13.9257 42H55.703C66.2863 42 75.3405 45.7128 82.719 53.1375C90.2397 60.4254 94 69.3629 94 79.8127C94 90.1252 90.3819 99.0627 82.999 106.35C75.6205 113.637 66.7041 117.488 56.2631 117.625H27.8516V138.25C27.8516 145.812 21.5842 152 13.9257 152Z" fill="#02BC6B"/>
<path fill-rule="evenodd" clip-rule="evenodd" d="M111.094 25C126.326 39.9301 134 58.5252 134 79.663C134 100.446 126.648 119.023 111.652 134L90.3608 113.783C99.6888 104.469 104.265 93.2547 104.265 79.663C104.265 65.9674 99.548 54.771 90 45.4095L111.094 25Z" fill="#02897A"/>
<path fill-rule="evenodd" clip-rule="evenodd" d="M143.614 0C165.822 22.0391 177 49.366 177 80.7298C177 111.604 166.272 138.914 144.424 161L123.624 140.798C139.898 124.346 147.868 104.392 147.868 80.7298C147.868 56.8302 139.626 36.8933 123 20.3939L143.614 0Z" fill="#035B81"/>
</svg>
