<svg width="177" height="37" viewBox="0 0 177 37" fill="none" xmlns="http://www.w3.org/2000/svg">
<path fill-rule="evenodd" clip-rule="evenodd" d="M3.133 34.4586C1.41 34.4586 0 33.0487 0 31.3255V20.3719H7.886V20.3598H12.626C13.848 20.3285 14.882 19.2632 14.882 18.01C14.882 16.7254 13.817 15.6602 12.532 15.6602H6.26601V15.6622H0V12.5271C0 10.8039 1.41 9.394 3.133 9.394H12.532C14.913 9.394 16.95 10.24 18.61 11.9318C20.302 13.5924 21.148 15.6289 21.148 18.01C21.148 20.3598 20.334 22.3963 18.673 24.0568C17.013 25.7173 15.007 26.5946 12.658 26.6259H6.26601V31.3255C6.26601 33.0487 4.856 34.4586 3.133 34.4586Z" fill="#02BC6B"/>
<path fill-rule="evenodd" clip-rule="evenodd" d="M25.097 5.7578C28.559 9.1199 30.303 13.3073 30.303 18.0673C30.303 22.7473 28.632 26.9307 25.224 30.3034L20.385 25.7508C22.505 23.6533 23.545 21.128 23.545 18.0673C23.545 14.9832 22.473 12.4619 20.303 10.3538L25.097 5.7578Z" fill="#02897A"/>
<path fill-rule="evenodd" clip-rule="evenodd" d="M32.5059 0C37.4909 4.9778 39.9999 11.1499 39.9999 18.2338C39.9999 25.2071 37.5919 31.3753 32.6879 36.3638L28.0189 31.8009C31.6719 28.085 33.4609 23.5781 33.4609 18.2338C33.4609 12.8358 31.6109 8.3328 27.8789 4.6062L32.5059 0Z" fill="#035B81"/>
<path d="M73.91 14.72C73.91 15.94 73.63 17.06 73.07 18.08C72.51 19.08 71.65 19.89 70.49 20.51C69.33 21.13 67.89 21.44 66.17 21.44H62.99V29H57.86V7.94H66.17C67.85 7.94 69.27 8.23 70.43 8.81C71.59 9.39 72.46 10.19 73.04 11.21C73.62 12.23 73.91 13.4 73.91 14.72ZM65.78 17.36C66.76 17.36 67.49 17.13 67.97 16.67C68.45 16.21 68.69 15.56 68.69 14.72C68.69 13.88 68.45 13.23 67.97 12.77C67.49 12.31 66.76 12.08 65.78 12.08H62.99V17.36H65.78ZM81.711 15.05C82.311 14.13 83.061 13.41 83.961 12.89C84.861 12.35 85.861 12.08 86.961 12.08V17.51H85.551C84.271 17.51 83.311 17.79 82.671 18.35C82.031 18.89 81.711 19.85 81.711 21.23V29H76.581V12.26H81.711V15.05ZM97.033 29.24C95.393 29.24 93.913 28.89 92.593 28.19C91.293 27.49 90.263 26.49 89.503 25.19C88.763 23.89 88.393 22.37 88.393 20.63C88.393 18.91 88.773 17.4 89.533 16.1C90.293 14.78 91.333 13.77 92.653 13.07C93.973 12.37 95.453 12.02 97.093 12.02C98.733 12.02 100.213 12.37 101.533 13.07C102.853 13.77 103.893 14.78 104.653 16.1C105.413 17.4 105.793 18.91 105.793 20.63C105.793 22.35 105.403 23.87 104.623 25.19C103.863 26.49 102.813 27.49 101.473 28.19C100.153 28.89 98.673 29.24 97.033 29.24ZM97.033 24.8C98.013 24.8 98.843 24.44 99.523 23.72C100.223 23 100.573 21.97 100.573 20.63C100.573 19.29 100.233 18.26 99.553 17.54C98.893 16.82 98.073 16.46 97.093 16.46C96.093 16.46 95.263 16.82 94.603 17.54C93.943 18.24 93.613 19.27 93.613 20.63C93.613 21.97 93.933 23 94.573 23.72C95.233 24.44 96.053 24.8 97.033 24.8ZM107.494 20.6C107.494 18.88 107.814 17.37 108.454 16.07C109.114 14.77 110.004 13.77 111.124 13.07C112.244 12.37 113.494 12.02 114.874 12.02C115.974 12.02 116.974 12.25 117.874 12.71C118.794 13.17 119.514 13.79 120.034 14.57V6.8H125.164V29H120.034V26.6C119.554 27.4 118.864 28.04 117.964 28.52C117.084 29 116.054 29.24 114.874 29.24C113.494 29.24 112.244 28.89 111.124 28.19C110.004 27.47 109.114 26.46 108.454 25.16C107.814 23.84 107.494 22.32 107.494 20.6ZM120.034 20.63C120.034 19.35 119.674 18.34 118.954 17.6C118.254 16.86 117.394 16.49 116.374 16.49C115.354 16.49 114.484 16.86 113.764 17.6C113.064 18.32 112.714 19.32 112.714 20.6C112.714 21.88 113.064 22.9 113.764 23.66C114.484 24.4 115.354 24.77 116.374 24.77C117.394 24.77 118.254 24.4 118.954 23.66C119.674 22.92 120.034 21.91 120.034 20.63ZM145.406 12.26V29H140.276V26.72C139.756 27.46 139.046 28.06 138.146 28.52C137.266 28.96 136.286 29.18 135.206 29.18C133.926 29.18 132.796 28.9 131.816 28.34C130.836 27.76 130.076 26.93 129.536 25.85C128.996 24.77 128.726 23.5 128.726 22.04V12.26H133.826V21.35C133.826 22.47 134.116 23.34 134.696 23.96C135.276 24.58 136.056 24.89 137.036 24.89C138.036 24.89 138.826 24.58 139.406 23.96C139.986 23.34 140.276 22.47 140.276 21.35V12.26H145.406ZM148.07 20.63C148.07 18.89 148.42 17.37 149.12 16.07C149.84 14.77 150.83 13.77 152.09 13.07C153.37 12.37 154.83 12.02 156.47 12.02C158.57 12.02 160.32 12.57 161.72 13.67C163.14 14.77 164.07 16.32 164.51 18.32H159.05C158.59 17.04 157.7 16.4 156.38 16.4C155.44 16.4 154.69 16.77 154.13 17.51C153.57 18.23 153.29 19.27 153.29 20.63C153.29 21.99 153.57 23.04 154.13 23.78C154.69 24.5 155.44 24.86 156.38 24.86C157.7 24.86 158.59 24.22 159.05 22.94H164.51C164.07 24.9 163.14 26.44 161.72 27.56C160.3 28.68 158.55 29.24 156.47 29.24C154.83 29.24 153.37 28.89 152.09 28.19C150.83 27.49 149.84 26.49 149.12 25.19C148.42 23.89 148.07 22.37 148.07 20.63ZM176.585 24.65V29H173.975C172.115 29 170.665 28.55 169.625 27.65C168.585 26.73 168.065 25.24 168.065 23.18V16.52H166.025V12.26H168.065V8.18H173.195V12.26H176.555V16.52H173.195V23.24C173.195 23.74 173.315 24.1 173.555 24.32C173.795 24.54 174.195 24.65 174.755 24.65H176.585Z" fill="#173A56"/>
</svg>
